<svg xmlns="http://www.w3.org/2000/svg" width="25.5" height="25.5" viewBox="486.5 486.5 25.5 25.5"><path fill="#FFF" d="M486.5 486.5V512H512v-25.5h-25.5zm19.864 9.725c.22 4.894-3.43 10.349-9.889 10.349a9.837 9.837 0 0 1-5.333-1.563 6.997 6.997 0 0 0 5.15-1.44 3.483 3.483 0 0 1-3.25-2.416 3.49 3.49 0 0 0 1.571-.06c-1.673-.337-2.828-1.844-2.79-3.455.469.26 1.005.417 1.575.435a3.484 3.484 0 0 1-1.076-4.645 9.88 9.88 0 0 0 7.171 3.635 3.482 3.482 0 0 1 5.928-3.172 6.951 6.951 0 0 0 2.209-.845 3.49 3.49 0 0 1-1.529 1.925 6.94 6.94 0 0 0 1.998-.548 7.053 7.053 0 0 1-1.735 1.8z"/></svg>