<svg xmlns="http://www.w3.org/2000/svg" width="26.7" height="27.5" viewBox="162.1 -73.4 26.7 27.5"><path fill="#FFF" d="M163-59.8c0-1.7.3-3.3 1-4.8s1.5-2.9 2.7-4c1.1-1.1 2.4-2 4-2.7s3.1-1 4.8-1c1.7 0 3.3.3 4.8 1s2.9 1.5 4 2.7 2 2.4 2.7 4c.7 1.5 1 3.1 1 4.8s-.3 3.3-1 4.8-1.5 2.9-2.7 4c-1.1 1.1-2.4 2-4 2.7-1.5.7-3.1 1-4.8 1s-3.3-.3-4.8-1-2.9-1.5-4-2.7c-1.1-1.1-2-2.4-2.7-4-.7-1.5-1-3.1-1-4.8zm9.3 0h1.4v6.7h2.8v-6.7h1.9l.2-2.3h-2.1v-1.2c0-.3.1-.6.2-.7.1-.1.4-.2.8-.2h1.2v-2.3h-1.9c-1.1 0-1.9.3-2.3.8-.5.5-.7 1.3-.7 2.3v1.4h-1.4v2.2h-.1z"/></svg>