<svg xmlns="http://www.w3.org/2000/svg" width="25.5" height="25.5" viewBox="486.5 486.5 25.5 25.5"><path fill="#1187C9" d="M486.5 486.801H512V512h-25.5z"/><path fill="#FFF" d="M495.67 504.669h-2.484v-7.861h2.484v7.861zm-1.305-8.846h-.019c-.899 0-1.483-.6-1.483-1.361 0-.776.601-1.365 1.519-1.365.916 0 1.48.587 1.498 1.363 0 .761-.582 1.363-1.515 1.363zm11.249 8.846h-2.818v-4.068c0-1.065-.44-1.791-1.41-1.791-.741 0-1.154.489-1.346.963-.071.17-.061.405-.061.643v4.254h-2.792s.035-7.207 0-7.861h2.792v1.233c.165-.54 1.058-1.31 2.481-1.31 1.765 0 3.154 1.13 3.154 3.565v4.372z"/></svg>