<svg xmlns="http://www.w3.org/2000/svg" width="25.5" height="25.5" viewBox="486.5 486.5 25.5 25.5"><path fill="#FFF" d="M486.5 486.5V512H512v-25.5h-25.5zm19.864 9.725c.22 4.894-3.43 10.35-9.89 10.35a9.837 9.837 0 0 1-5.332-1.564 6.997 6.997 0 0 0 5.15-1.44 3.483 3.483 0 0 1-3.25-2.415 3.49 3.49 0 0 0 1.57-.06c-1.672-.337-2.827-1.844-2.79-3.455a3.47 3.47 0 0 0 1.576.435 3.484 3.484 0 0 1-1.076-4.645 9.88 9.88 0 0 0 7.17 3.635 3.482 3.482 0 0 1 5.93-3.172 6.95 6.95 0 0 0 2.208-.845 3.49 3.49 0 0 1-1.53 1.925 6.94 6.94 0 0 0 2-.548 7.053 7.053 0 0 1-1.736 1.8z"/></svg>