<svg xmlns="http://www.w3.org/2000/svg" width="25.5" height="25.5" viewBox="486.5 486.5 25.5 25.5"><path fill="#1187C9" d="M486.5 486.8H512V512h-25.5z"/><path fill="#FFF" d="M495.67 504.67h-2.484v-7.862h2.484v7.86zm-1.305-8.847h-.02c-.898 0-1.482-.6-1.482-1.36 0-.777.6-1.366 1.52-1.366.915 0 1.48.587 1.497 1.363 0 .76-.582 1.363-1.515 1.363zm11.25 8.846h-2.82v-4.07c0-1.064-.44-1.79-1.41-1.79-.74 0-1.153.49-1.345.963-.07.17-.06.405-.06.643v4.254h-2.793s.035-7.207 0-7.86h2.792v1.232c.164-.54 1.057-1.31 2.48-1.31 1.765 0 3.154 1.13 3.154 3.565v4.372z"/></svg>