<svg xmlns="http://www.w3.org/2000/svg" width="24" height="30" viewBox="622.5 264 24 30"><path fill="#392B28" d="M644.7 284.3c-3.6 8.5-10.9 8.5-13.2 8.5-1.4 0-2.9-.2-4.2-.8-1.1-.5-2.1-1.2-2.7-2.4-.5-1-.5-2-.4-3.1.2-1.6.9-2.9 1.9-4.2 1.2-1.6 2.6-3 3.9-4.3l5.8-5.8c.1-.1.1-.2.1-.4-.1-1.7-.1-3.4.6-4.9.7-1.5 2.2-2.3 3.8-1.9.9.2 1.3.7 1.3 1.6.1.9-.2 1.7-.6 2.4-.7 1.4-1.8 2.5-2.9 3.5-.2.1-.2.2-.1.4.3.8.6 1.7.9 2.5.5 1.5 1.1 3 1.5 4.5.7 2.3.1 4.3-1.3 6.1-.5.6-1.1 1.2-1.6 1.8l-.1.1v.1c.6-.1 1.1-.1 1.7-.2 2.3-.7 4.1-1.9 5.6-3.5M635 278c-.1.1-.1.1-.1.2-.8 1-1.6 2.1-2.3 3.1-.8 1.1-1.5 2.2-2.2 3.4-.5.9-.4 2.1.3 2.9.2.3.5.4.9.4.8 0 1.5-.3 2.1-.9 1.1-1 1.6-2.3 1.7-3.8.1-1.7-.2-3.5-.4-5.3zm2.5-8c.1 0 .1-.1 0 0 .5-.7 1-1.4 1.2-2.1.1-.2.1-.4.1-.6 0-.2-.1-.2-.3-.2-.4.1-.6.3-.8.7-.2.6-.3 1.4-.2 2.2z"/></svg>