<svg xmlns="http://www.w3.org/2000/svg" width="1446" height="1040" viewBox="417 -124 1446 1040"><path fill="#FFF" d="M1573.3 554.2c-12 1-23.6 2.4-35.3 2.9-20.2 1-40.1-1.3-59.1-8.8-42.7-16.8-64.9-52.6-62.3-98.8 1.4-23.4 8.9-45.1 16.4-66.9 18.8-54.4 37.5-108.8 56.2-163.2.2-.7.4-1.5.9-3.1-3.7.7-6.8 1.1-9.9 1.8-48.5 11.1-82.9 39.2-100.7 85.8-8.4 21.9-14.7 44.7-21.7 67.2-8.9 28.7-19.1 56.8-36.5 81.7-35.9 51.3-83 86.3-145.2 98.9-29.1 5.9-58.3 6.3-86.8-3.8-13.7-4.8-26.9-10.9-36.9-21.8-5.5-6-9.9-12.9-14.9-19.4-.8-1.1-1.6-2.2-2.6-3.6-8.2 4.8-16 9.6-24.1 14-28.5 15.8-57.7 29.7-89.8 36.7-15.8 3.4-31.6 4.8-47.5.5-14.9-4-25.7-13-33.2-26.5-9.9-17.9-14.8-37.2-15.9-57.5-.1-1.2-.2-2.5-.4-3.7 0-.1-.2-.2-.3-.3-4.2 4.1-8.4 8.3-12.7 12.3-28.5 26.3-62 44-98.2 57.1-42.3 15.3-85.9 23.2-131 21.9-28.6-.8-56.6-4.8-83-16.7-22.8-10.2-42-24.6-53.1-47.7-9.3-19.4-10.8-39.9-8.5-61.1 3.4-31.8 18.5-58.2 37.2-83 23.4-31 50.6-58.6 78.1-85.9 38.4-38.1 76.6-76.4 115-114.6 2.3-2.3 2.8-4.6 2.7-7.9-1.3-33.3-1.7-66.6 12.4-98 13.6-30.3 43.6-45.4 76.2-38.5 17 3.6 24.9 13.3 26.4 31.8 1.4 17.3-3.8 32.9-11.8 47.7-14.6 27.1-35.1 49.2-58.3 69-3 2.5-3.9 4.9-2.7 8.5 5.8 16.4 11.6 32.8 17.2 49.2 10.2 30 21.2 59.7 30 90.1 13 44.8 1.6 85.4-26.2 121.6-9.7 12.6-21.7 23.4-32.7 35-.7.7-1.6 1.3-2.5 1.9.2.6.5 1.2.7 1.8 11.2-1.5 22.6-2.1 33.6-4.8 43.5-10.5 79.7-33.6 110.2-66.1 1.1-1.2 2-2.8 2.5-4.4 20.3-58.2 40.5-116.4 60.7-174.6.3-.9.5-1.8.9-3.4h-34.2c2.1-6.4 4-12 5.9-17.5 7.7-22.9 15.5-45.7 23-68.7 1.2-3.6 2.8-4.9 6.6-4.7 8.5.4 16.9 0 25.4.3 3.2.1 4.6-.9 5.7-4 13.5-39.6 27.3-79.2 40.9-118.8 10.9-31.1 21.7-62.2 32.4-93.3.8-2.4 1.5-4 4.7-4 33.7.2 67.4.3 101.2.4.8 0 1.5.2 3 .4-25.5 73.4-50.9 146.4-76.6 220.3h39.6c-.6 2-.9 3.4-1.3 4.7-9.1 27.2-18.4 54.4-27.4 81.6-1.2 3.6-2.9 4.8-6.7 4.7-10.3-.3-20.7 0-31.1-.3-3.1-.1-4.3 1-5.3 3.9-19.7 59.5-39.7 118.9-59.3 178.5-6.4 19.6-10.7 39.7-10.3 60.5.2 7.3 1.9 14.5 3.5 21.7 1.7 7.5 7.2 11.7 14.6 11.7 8.2 0 16.8-.2 24.6-2.6 12.3-3.7 24-9.1 35.9-14 1.2-.5 2.5-2.8 2.4-4.1-1.3-20.8 2-41 8.6-60.6 15.5-45.6 30.1-91.5 47.2-136.5 24.7-64.9 70.8-109.7 135.3-135.2 32.4-12.8 66.1-17.1 100.7-10.8 31.9 5.7 56.4 22.5 73.6 49.9.4.7.8 1.3 1.6 2.5 2.6-2.4 5.1-4.7 7.6-6.9 36.1-32.6 78-49.3 127.1-47.3 16.8.7 33.6 0 50.4.3 10.3.2 20.2 2.5 29.2 7.8 11.5 6.9 16 17.5 11.9 30.6-6.5 20.6-13.6 41.1-20.5 61.5-21 62.1-41.9 124.2-63 186.3-5.7 16.8-3.4 32.5 5.1 47.5 8.2 14.5 20.2 18.3 35.1 10.9 19.2-9.5 33.9-24.4 47-41.2 10.2-13.1 14.6-28.7 19.8-43.9 29.3-84.9 58.5-169.8 87.7-254.8.8-2.5 1.5-4.4 4.9-4.3 33.7.2 67.5.3 101.2.4.8 0 1.5.1 3 .3-.6 1.8-1 3.4-1.5 4.9-25.4 74.5-51.3 148.8-76 223.6-24.2 72.9-50.8 145-76.3 217.4-20.7 58.9-40.2 118.1-60.3 177.2-19.7 57.9-57.6 100.3-111 129.2-27.5 14.9-56.8 24.5-88.1 26.5-29.9 2-58.7-2.2-84.1-19.5-29-19.7-41.6-47.8-41.3-82.5.4-39.6 14.3-74.5 36.8-106.3 37-52.1 86.3-86 149.3-98.6 11.3-2.3 23-2.6 34.6-3.1s22.8-1.9 33.2-7.4c11.2-6 18.8-16.3 20.5-27.9zM648.6 265.1c-1.3 1.6-2 2.2-2.5 3-15.3 20.6-31.2 40.9-45.9 62-15.3 22-30.1 44.4-43.8 67.4-10.8 18.2-7 42.3 6.8 58.3 4.8 5.5 10.8 8.4 18.2 8.2 16.2-.4 30.4-6 42.3-16.9 22.2-20.1 31.9-46 33.8-75.2 2.3-35.7-4.6-70.6-8.9-106.8zm488.7 129.3c2.2-1.2 3.2-1.7 4-2.3 48.1-35.6 94.3-73.4 139.7-112.3 1.3-1.1 2.6-3 2.6-4.7.5-10.9 1.3-21.9.7-32.8-.6-10.5-3.9-20.3-12.5-27.5-15.9-13.2-39.8-13.2-54.8.9-6.2 5.8-12 12.7-15.9 20.2-7.3 14-13.4 28.7-19.4 43.3-12.2 29.6-24.1 59.3-35.9 89-3.1 8.2-5.4 16.6-8.5 26.2zm402.1 277.9c-11.5 1.3-21.9 2.4-32.3 3.7-14.8 1.9-29.5 4.4-42.7 12-19.4 11.3-33.5 27.6-43.7 47.3-7.8 15.1-10.7 31-6 47.4 7.6 26.5 23.7 33 46.6 21.9.1-.1.3-.2.4-.2 18.1-9.1 31.3-23.3 41.8-40.2 12.4-19.9 19.6-42 26.8-64.1 2.9-9.1 5.9-18.1 9.1-27.8zm-274.8-327.7c-.4-.3-.7-.5-1.1-.8-1.6 1-3.1 2-4.6 3-21.1 14.5-42.4 28.6-63.1 43.5-19.5 14-38.2 29-57.4 43.4-3.1 2.4-3.7 4.7-2.5 8.4 5.2 15.7 21 27.5 38.4 27.6 22.7.1 38.5-12.1 48.7-30.8 10.5-19.2 18.9-39.5 27.8-59.6 5-11.3 9.2-23.1 13.8-34.7zM699.9 106.1c.8-.5 1.4-.6 1.7-1 8.9-12.9 17.9-25.8 22.7-40.9 1.2-3.8 1.5-8 1.6-12 .1-3-1.7-4.3-5-3.9-8 1.1-12.4 6.4-15.2 13.2-6 14.2-7.7 29-5.8 44.6z"/></svg>