<svg class="logo" xmlns="http://www.w3.org/2000/svg" width="730.5" height="735" viewBox="-56.4 35.1 730.5 735"><circle cx="306" cy="407.8" r="296" class="circle"/><path class="logoelement" fill="#FFF" d="M430.7 429.6c-3 .9-5.8 1.9-8.7 2.6-5 1.3-10.2 1.9-15.3 1-11.6-1.9-19.2-9.7-21-21.4-.9-6-.2-11.8.5-17.7 1.8-14.7 3.5-29.4 5.2-44 0-.2 0-.4.1-.8-.9.4-1.6.6-2.4 1-11.6 5.4-18.7 14.3-20.6 27-.9 6-1.3 12-1.8 18.1-.7 7.7-1.7 15.3-4.7 22.5-6.2 14.8-16.2 26.2-31.1 32.7-7 3.1-14.3 4.8-22 3.8-3.7-.5-7.3-1.3-10.5-3.5-1.7-1.2-3.2-2.7-4.8-4.1-.3-.2-.5-.5-.8-.8-1.8 1.6-3.5 3.3-5.3 4.8-6.3 5.5-12.9 10.6-20.6 14.1-3.8 1.7-7.7 2.9-11.9 2.7-4-.2-7.2-1.9-9.8-4.9-3.5-4-5.7-8.5-7.1-13.6l-.3-.9-.1-.1c-.8 1.3-1.7 2.5-2.5 3.8-5.7 8.1-13.2 14.4-21.6 19.7-9.8 6.1-20.3 10.5-31.7 12.6-7.2 1.4-14.5 1.9-21.8.3-6.3-1.3-11.9-3.9-15.9-9.1-3.4-4.4-4.9-9.4-5.4-14.9-.9-8.2 1.5-15.6 4.8-22.9 4.2-9 9.5-17.5 15-25.8 7.6-11.7 15.1-23.4 22.7-35 .5-.7.5-1.3.3-2.1-2.1-8.3-4-16.6-2.2-25.3 1.8-8.4 8.5-13.8 17-13.8 4.5 0 7 2 8.4 6.6 1.3 4.3.8 8.5-.4 12.6-2.2 7.6-6.1 14.3-10.9 20.5-.6.8-.7 1.4-.2 2.3 2.3 3.8 4.7 7.6 7 11.4 4.2 7 8.6 13.9 12.4 21 5.7 10.5 5 21.4 0 32-1.7 3.7-4.2 7.1-6.3 10.6-.1.2-.3.4-.5.6.1.1.2.3.3.4 2.7-1 5.6-1.7 8.2-3 10.4-5 18.2-12.8 24.1-22.6.2-.4.4-.8.4-1.2 1.9-15.7 3.9-31.4 5.8-47.2 0-.2 0-.5.1-.9-2.9.6-5.6 1.2-8.6 1.9.2-1.7.4-3.2.5-4.7.7-6.2 1.4-12.3 2.1-18.5.1-1 .4-1.4 1.4-1.5 2.2-.4 4.2-.9 6.4-1.3.8-.2 1.1-.5 1.2-1.3 1.2-10.7 2.5-21.4 3.8-32.1 1.1-8.4 2.1-16.8 3.1-25.2.1-.6.2-1.1 1-1.3 8.5-1.8 16.9-3.6 25.4-5.4.2-.1.4 0 .8-.1-2.4 19.8-4.8 39.5-7.3 59.5 3.4-.7 6.6-1.4 9.9-2.2-.1.5-.1.9-.1 1.3-.8 7.3-1.7 14.7-2.4 22-.1 1-.5 1.4-1.4 1.5-2.6.5-5.2 1.1-7.8 1.6-.8.2-1 .5-1.1 1.3-1.7 16-3.5 32-5.2 48.1-.5 5.3-.5 10.6.7 15.8.4 1.8 1.3 3.5 2.1 5.3.8 1.8 2.4 2.5 4.3 2.1 2.1-.4 4.2-1 6-2 2.9-1.6 5.5-3.6 8.2-5.5.3-.2.5-.8.4-1.2-1.5-5.2-1.7-10.4-1.1-15.7 1.4-12.3 2.6-24.6 4.4-36.9 2.7-17.7 11.8-31.4 26.6-41.3 7.5-5 15.7-7.9 24.7-8.2 8.3-.3 15.4 2.6 21.2 8.5.1.2.3.3.5.5.5-.7 1-1.5 1.5-2.2 7.3-10.2 16.9-16.6 29.3-18.8 4.3-.7 8.4-1.8 12.7-2.7 2.6-.5 5.2-.5 7.8.4 3.3 1.1 5 3.5 4.7 7-.5 5.5-1.2 11.1-1.8 16.5-1.9 16.7-3.8 33.5-5.7 50.2-.5 4.5.9 8.4 3.9 11.6 2.9 3.2 6.1 3.5 9.4.8 4.3-3.4 7.2-8 9.6-12.9 1.9-3.9 2.1-8 2.6-12.1 2.7-22.9 5.5-45.8 8.2-68.8.1-.7.1-1.2 1-1.3 8.5-1.8 17-3.6 25.4-5.4.2-.1.4-.1.8-.1-.1.5-.1.9-.1 1.3-2.3 20.1-4.8 40.2-6.9 60.3-2.1 19.6-4.9 39.2-7.3 58.7-2 15.9-3.7 31.8-5.5 47.8-1.8 15.6-9 28.3-20.9 38.5-6.1 5.2-12.9 9.3-20.7 11.4-7.4 2.1-14.9 2.6-22.2-.3-8.4-3.4-13.1-9.7-14.9-18.5-2.1-10-.5-19.5 3.5-28.7 6.5-15.1 17-26.3 32.1-32.9 2.7-1.2 5.6-1.9 8.5-2.6 2.9-.7 5.6-1.7 7.9-3.7 2.2-1.6 3.5-4.6 3.3-7.6zm-247.9-22.4c-.2.5-.4.7-.5.9-2.7 6-5.6 12-8.2 18.1-2.6 6.3-5.1 12.8-7.3 19.3-1.7 5.2.5 11 4.9 14.3 1.5 1.1 3.2 1.5 5 1.1 4-1 7.3-3.2 9.7-6.6 4.5-6.2 5.5-13.3 4.4-20.7-1.4-9.1-5-17.5-8-26.4zm129.7 6c.5-.4.7-.6.9-.8 10.2-11.6 19.7-23.6 29-35.8.3-.3.5-.9.4-1.3-.5-2.8-.9-5.6-1.6-8.3-.7-2.6-2.1-4.9-4.6-6.2-4.7-2.4-10.7-1.2-13.7 3.2-1.2 1.8-2.3 3.8-2.9 5.9-1.1 3.9-1.8 7.9-2.5 11.9-1.5 8.1-2.8 16.2-4.2 24.3-.4 2.3-.5 4.5-.8 7.1zm116.1 47.9c-2.8 1-5.4 1.8-7.9 2.7-3.6 1.3-7.2 2.7-10.1 5.3-4.3 3.9-6.9 8.8-8.4 14.3-1.1 4.2-1 8.4 1.1 12.2 3.3 6.2 7.7 7 12.9 3l.1-.1c4.1-3.3 6.6-7.6 8.3-12.4 2-5.7 2.6-11.6 3.2-17.6.3-2.3.5-4.7.8-7.4zm-86.8-67.3c-.1-.1-.2-.1-.3-.1-.4.3-.7.7-1 1-4.5 4.8-9.1 9.5-13.5 14.4-4.1 4.6-8 9.4-12.1 14-.6.8-.7 1.4-.2 2.2 2.2 3.6 6.8 5.8 11.2 4.9 5.7-1.2 9-5.1 10.6-10.4 1.6-5.4 2.6-10.9 3.8-16.5.6-3.2 1-6.4 1.5-9.5zM187 364.5c.2-.2.3-.2.4-.3 1.5-3.7 3.1-7.5 3.5-11.5.1-1-.1-2.1-.3-3.1-.1-.8-.7-1-1.5-.7-2 .7-2.8 2.3-3.1 4.1-.7 3.9-.3 7.7 1 11.5z"/></svg>