<?xml version="1.0" encoding="utf-8"?>
<!-- Generator: Adobe Illustrator 18.1.0, SVG Export Plug-In . SVG Version: 6.00 Build 0)  -->
<svg version="1.1" xmlns="http://www.w3.org/2000/svg" xmlns:xlink="http://www.w3.org/1999/xlink" x="0px" y="0px" width="26.7px"
	 height="27.5px" viewBox="162.1 -73.4 26.7 27.5" enable-background="new 162.1 -73.4 26.7 27.5" xml:space="preserve">
<g id="Layer_2">
</g>
<g id="Layer_1">
	<path fill="#FFFFFF" d="M163-59.8c0-1.7,0.3-3.3,1-4.8c0.7-1.5,1.5-2.9,2.7-4c1.1-1.1,2.4-2,4-2.7s3.1-1,4.8-1c1.7,0,3.3,0.3,4.8,1
		s2.9,1.5,4,2.7s2,2.4,2.7,4c0.7,1.5,1,3.1,1,4.8s-0.3,3.3-1,4.8c-0.7,1.5-1.5,2.9-2.7,4c-1.1,1.1-2.4,2-4,2.7c-1.5,0.7-3.1,1-4.8,1
		s-3.3-0.3-4.8-1c-1.5-0.7-2.9-1.5-4-2.7c-1.1-1.1-2-2.4-2.7-4C163.3-56.5,163-58.1,163-59.8L163-59.8z M172.3-59.8h1.4v6.7h2.8
		v-6.7h1.9l0.2-2.3h-2.1v-1.2c0-0.3,0.1-0.6,0.2-0.7c0.1-0.1,0.4-0.2,0.8-0.2h1.2v-2.3h-1.9c-1.1,0-1.9,0.3-2.3,0.8
		c-0.5,0.5-0.7,1.3-0.7,2.3v1.4h-1.4V-59.8L172.3-59.8z"/>
</g>
</svg>
