<?xml version="1.0" encoding="utf-8"?>
<!-- Generator: Adobe Illustrator 16.0.0, SVG Export Plug-In . SVG Version: 6.00 Build 0)  -->
<!DOCTYPE svg PUBLIC "-//W3C//DTD SVG 1.1//EN" "http://www.w3.org/Graphics/SVG/1.1/DTD/svg11.dtd">
<svg version="1.1" id="Layer_1" xmlns="http://www.w3.org/2000/svg" xmlns:xlink="http://www.w3.org/1999/xlink" x="0px" y="0px"
	 width="25.5px" height="25.5px" viewBox="486.5 486.5 25.5 25.5" enable-background="new 486.5 486.5 25.5 25.5"
	 xml:space="preserve">
<path id="twitter-2-icon" fill="#FFFFFF" d="M486.5,486.5V512H512v-25.5H486.5z M506.364,496.225
	c0.22,4.894-3.43,10.349-9.889,10.349c-1.965,0-3.794-0.575-5.333-1.563c1.846,0.218,3.688-0.295,5.15-1.44
	c-1.522-0.028-2.807-1.034-3.25-2.416c0.546,0.104,1.082,0.073,1.571-0.06c-1.673-0.337-2.828-1.844-2.79-3.455
	c0.469,0.26,1.005,0.417,1.575,0.435c-1.549-1.035-1.987-3.081-1.076-4.645c1.716,2.104,4.279,3.49,7.171,3.635
	c-0.508-2.176,1.144-4.271,3.389-4.271c1.001,0,1.905,0.422,2.539,1.099c0.793-0.156,1.537-0.446,2.209-0.845
	c-0.26,0.813-0.811,1.494-1.529,1.925c0.704-0.084,1.374-0.271,1.998-0.548C507.634,495.122,507.044,495.734,506.364,496.225z"/>
</svg>
