<!-- Generator: Adobe Illustrator 18.1.0, SVG Export Plug-In  -->
<svg version="1.1"
	 xmlns="http://www.w3.org/2000/svg" xmlns:xlink="http://www.w3.org/1999/xlink" xmlns:a="http://ns.adobe.com/AdobeSVGViewerExtensions/3.0/"
	 x="0px" y="0px" width="432.5px" height="431.3px" viewBox="0 0 432.5 431.3"
	 overflow="scroll" enable-background="new 0 0 432.5 431.3" xml:space="preserve">
<defs>
</defs>
<path fill="#FFFFFF" d="M79.7,418.4l-32.5-23.5l-36.5-51.5l-4.5-29.5l13-38l21.5-17.5l37.5-16.5l29-29l20.5-29l28.5-15.5l13,4l-1,9
	l-10.5,13l-9,22v21.5l7.5,4.5l31-32L323.7,74.9l7.5-30.5l60-34.5c0,0,16.5-3,18-2.5s16.5,9.5,16.5,9.5l1.5,16.5l-15,19l-14.5,0.5
	l-11.5,4.5l-12.5,28l-32,13L181.2,266.9l7.5,8.5l25.5-0.5l27-18.5l14.5-17l11.5,2l2.5,14.5l-8.5,21l-20,15.5l-35.5,19l-10,14
	c0,0-12.5,25-12.5,26.5s-14,39.5-14,39.5l-22,22l-31.5,15L79.7,418.4z"/>
<g>
	<g>
		<path d="M343.7,98.9l-24.7-24.7l6.9-32.9l2.2-1.3c10.4-6.1,20.3-11.7,29.4-17.3c9.5-5.2,19-11.3,29.4-17.3
			C394.4,0.6,411.2-5,424.2,8c10,10,12.5,27.3-1.3,41.1c-9.1,9.1-19.9,12.1-30.7,8.2l-14.7,33.8L343.7,98.9z M331.6,71.2l16,16
			l22.1-3.9l16.9-39.4l5.2,2.6c8.7,4.3,16,3,23.4-4.3c10-10,6.1-20.8,1.3-25.5c-9.5-9.5-23.4-0.9-23.4-0.9
			c-10.4,6.1-20.3,11.7-29.4,17.3c-8.7,5.2-17.7,10-27.3,16L331.6,71.2z"/>
	</g>
	<g>
		<path d="M167.2,287.6l-33.3-33.3L327.3,66.9l26.4,26.4L167.2,287.6z M149.4,254.2l17.3,17.3L338.1,93.3l-10.8-10.8L149.4,254.2z"
			/>
	</g>
	<g>
		<path d="M46.9,398.3c-9.5-9.5-19.5-21.2-29-35.1C3.2,341.6-2.5,322.2,1,302.3c3.9-21.2,18.2-40.7,37.2-51.1
			c7.4-3.9,14.7-6.9,21.6-9.5c6.9-2.6,13.4-5.6,19.5-8.2c11.3-6.1,17.3-15.6,24.7-26.4c2.2-3,3.9-6.5,6.1-9.5
			c10.8-15.1,24.2-27.7,38.1-33.8c10-4.8,20.3-2.2,25.1,5.2c3.5,5.2,3.9,14.3-6.1,22.5c-12.1,10.4-17.7,32.5-13,45.9
			c1.3,3,0,6.1-3,7.4s-6.1,0-7.4-3c-7.8-19,2.2-46.3,16-58.4c3.9-3,5.2-6.1,3.9-8.2c-0.9-1.7-5.2-3.5-11.3-0.9
			c-12.1,5.2-24.2,16.4-33.3,29.9c-2.2,3-4.3,6.1-5.6,9.1c-6.9,11.3-14.3,22.9-28.6,30.3c-6.9,3.5-13.8,6.1-20.3,9.1
			c-7.4,3-14.3,5.6-20.3,9.1c-16.4,8.7-28.6,25.1-32,43.3c-3,16.9,1.7,33.8,15.1,53.2c28.6,40.7,55.4,61.5,82.7,62.7
			c23.8,1.3,41.1-17.7,48.9-29c7.8-11.3,11.7-23.8,16.4-37.2c3.5-10.4,6.9-20.8,12.1-31.2c6.5-12.5,18.6-18.6,30.3-24.2
			c5.2-2.6,10-4.8,14.3-7.4c12.5-8.2,27.7-21.6,31.6-38.5c1.7-6.9,0.4-8.2-1.7-9.5c-1.3-0.4-2.6-0.9-3.9-0.4c-0.9,0-1.7,0.9-1.7,1.7
			c-5.2,13-19.9,26-37.2,32.9c-14.7,6.1-28.6,6.1-39.4,1.3l0.9-6.1l2.6-5.2l0.4,0.4c8.2,3.9,19.9,3.5,31.6-1.3
			c14.3-5.6,26.8-16.4,31.2-26.8c1.7-4.3,4.3-6.9,9.1-8.2c4.3-1.7,9.1-0.4,13,1.7c10.4,6.1,7.4,16.9,6.5,21.2
			c-3.9,16-16,31.6-36.4,45c-4.8,3-10.4,6.1-15.6,8.7c-10.4,5.2-20.3,10-25.5,19.5c-4.8,9.1-8.2,18.6-11.7,29
			c-4.8,13.4-9.1,27.3-17.7,40.2c-16,22.9-37.2,34.6-58.9,33.8C88.4,429.5,67.6,419.1,46.9,398.3z"/>
	</g>
	<g>
		<path d="M151.6,305.7l-36.4-36.4c-2.2-2.2-2.2-5.6,0-7.8c2.2-2.2,5.6-2.2,7.8,0l36.4,36.4c2.2,2.2,2.2,5.6,0,7.8
			C157.2,307.9,153.7,307.9,151.6,305.7z"/>
	</g>
	<g>
		<path d="M126.1,331.3l-36.4-36.4c-2.2-2.2-2.2-5.6,0-7.8c2.2-2.2,5.6-2.2,7.8,0l36.4,36.4c2.2,2.2,2.2,5.6,0,7.8
			C131.7,333.4,128.2,333.4,126.1,331.3z"/>
	</g>
	<g>
		<path d="M102.7,354.6l-36.4-36.4c-2.2-2.2-2.2-5.6,0-7.8c2.2-2.2,5.6-2.2,7.8,0l36.4,36.4c2.2,2.2,2.2,5.6,0,7.8
			C108.3,356.8,104.8,356.8,102.7,354.6z"/>
	</g>
	<g>
		<circle cx="115.2" cy="385.4" r="8.6"/>
	</g>
	<g>
		<circle cx="144.7" cy="374.1" r="8.6"/>
	</g>
</g>
</svg>
