<!-- Generator: Adobe Illustrator 18.1.0, SVG Export Plug-In  -->
<svg version="1.1"
	 xmlns="http://www.w3.org/2000/svg" xmlns:xlink="http://www.w3.org/1999/xlink" xmlns:a="http://ns.adobe.com/AdobeSVGViewerExtensions/3.0/"
	 x="0px" y="0px" width="440.6px" height="440.4px" viewBox="0 0 440.6 440.4"
	 overflow="scroll" enable-background="new 0 0 440.6 440.4" xml:space="preserve">
<defs>
</defs>
<polygon fill="#FFFFFF" points="92,427.8 58,403.8 19.5,365.8 5.5,328.3 13.5,294.3 36.5,269.3 75.5,250.8 119,235.3 137,212.3
	153.5,190.3 178,183.3 201.5,190.8 218.5,201.3 279,142.3 348,73.3 349.5,52.8 371.5,41.3 403.5,5.8 423.5,17.8 434.5,35.3
	418.5,53.3 387,90.3 364.5,96.3 350,111.3 240,225.8 252.5,247.3 256.5,273.3 247.5,292.8 219,308.8 201.5,334.8 192,360.3
	169,410.8 137.5,435.8 110.5,435.3 "/>
<g>
	<g>
		<polygon points="200.9,256.6 351.9,98.7 341.1,87.8 183.6,239.3 176.2,231.1 341.1,72.3 367.1,98.2 209.1,264 		"/>
	</g>
	<g>
		<path d="M145.5,294.7c-14.3-14.3-13.8-37.2,0.9-51.9c14.7-14.7,37.6-15.1,51.9-0.9c14.3,14.3,13.8,37.2-0.9,51.9
			C182.7,308.6,159.8,309,145.5,294.7z M190.5,249.7c-9.5-9.5-26-9.5-36.4,0.9c-10.4,10.4-10.8,26.4-0.9,36.4c10,10,26,9.5,36.4-0.9
			C199.6,276.1,200,259.2,190.5,249.7z"/>
	</g>
	<g>
		<rect x="64.6" y="342.6" transform="matrix(-0.7071 -0.7071 0.7071 -0.7071 -88.3067 659.7159)" width="55.7" height="11"/>
	</g>
	<g>
		<path d="M42.5,397.7c-48.5-48.5-55.4-90-21.2-124.2c15.6-15.6,44.6-29,80.5-38.1c12.1-2.6,22.5-11.3,27.7-22.5
			c3.9-8.2,8.7-14.7,13.4-19.5c21.2-21.2,46.3-20.3,74.4,1.7l-6.9,8.7c-23.8-18.6-42.8-19.5-59.7-2.6c-3.9,3.9-7.8,9.5-11.3,16.4
			c-7.4,14.3-20.3,24.7-35.5,28.6c-33.3,8.2-61,21.2-74.9,35.1c-29.4,29.4-22.5,64.9,21.2,108.6s79.2,50.6,108.6,21.2
			c13.8-13.8,26-40.7,34.2-74c3.9-15.1,14.3-28.1,29.4-36.4c6.9-3.5,12.5-7.4,16.4-11.3c17.7-17.7,16-37.6-4.8-62.7l8.7-6.9
			c24.7,29.9,26.4,55.8,4.3,77.9c-4.8,4.8-11.3,9.5-19.5,13.4c-12.1,6.1-20.8,16.4-23.8,29c-8.7,35.5-22.1,64.5-37.2,79.6
			C132.5,453.1,91,446.2,42.5,397.7z"/>
	</g>
	<g>
		<rect x="48.4" y="347" transform="matrix(-0.7071 -0.7071 0.7071 -0.7071 -100.2317 663.4313)" width="77.7" height="11"/>
	</g>
	<g>
		<path d="M336.3,76.2c3.9-5.6,9.1-15.1,7.8-19.9l-1.3-4.8l3.9-2.2c0,0,25.1-13,54.1-46.3l3-3l23.8,12.5l13,23.4l-3,3
			c-33.8,29.4-46.7,53.7-47.2,54.1l-2.2,3.9l-4.8-1.3c-4.8-1.3-15.1,3.9-19.9,7.8l-6.5-9.1c2.6-1.7,14.7-10.4,25.5-10
			c4.3-7.8,18.2-27.7,43.3-51.1l-6.5-12.5l-13-6.9c-23.4,26-43.3,38.9-51.1,43.3c0.4,10.8-8.2,22.9-10,25.5L336.3,76.2z"/>
	</g>
</g>
</svg>
