<?xml version="1.0" encoding="utf-8"?>
<!-- Generator: Adobe Illustrator 16.0.0, SVG Export Plug-In . SVG Version: 6.00 Build 0)  -->
<!DOCTYPE svg PUBLIC "-//W3C//DTD SVG 1.1//EN" "http://www.w3.org/Graphics/SVG/1.1/DTD/svg11.dtd">
<svg version="1.1" xmlns="http://www.w3.org/2000/svg" xmlns:xlink="http://www.w3.org/1999/xlink" x="0px" y="0px" width="25.5px"
	 height="25.5px" viewBox="486.5 486.5 25.5 25.5" enable-background="new 486.5 486.5 25.5 25.5" xml:space="preserve">
<g id="Layer_4">
</g>
<g id="Layer_2">
</g>
<g id="Layer_1">
	<rect x="486.5" y="486.801" fill="#1187C9" width="25.5" height="25.199"/>
	<path fill="#FFFFFF" d="M495.67,504.669h-2.484v-7.861h2.484V504.669z M494.365,495.823h-0.019c-0.899,0-1.483-0.6-1.483-1.361
		c0-0.776,0.601-1.365,1.519-1.365c0.916,0,1.48,0.587,1.498,1.363C495.88,495.221,495.298,495.823,494.365,495.823z
		 M505.614,504.669h-2.818v-4.068c0-1.065-0.44-1.791-1.41-1.791c-0.741,0-1.154,0.489-1.346,0.963
		c-0.071,0.17-0.061,0.405-0.061,0.643v4.254h-2.792c0,0,0.035-7.207,0-7.861h2.792v1.233c0.165-0.54,1.058-1.31,2.481-1.31
		c1.765,0,3.154,1.13,3.154,3.565L505.614,504.669L505.614,504.669z"/>
</g>
<g id="Layer_3">
</g>
</svg>
