<?xml version="1.0" encoding="utf-8"?>
<!-- Generator: Adobe Illustrator 19.0.0, SVG Export Plug-In . SVG Version: 6.00 Build 0)  -->
<svg version="1.1" id="Layer_1" xmlns="http://www.w3.org/2000/svg" xmlns:xlink="http://www.w3.org/1999/xlink" x="0px" y="0px"
	 viewBox="62 205.4 388 276.1" style="enable-background:new 62 205.4 388 276.1;" xml:space="preserve">
<style type="text/css">
	.st0{fill:#FFFFFF;}
</style>
<path class="st0" d="M375.7,358.9c-3,0.9-5.8,1.9-8.7,2.6c-5,1.3-10.2,1.9-15.3,1c-11.6-1.9-19.2-9.7-21-21.4
	c-0.9-6-0.2-11.8,0.5-17.7c1.8-14.7,3.5-29.4,5.2-44c0-0.2,0-0.4,0.1-0.8c-0.9,0.4-1.6,0.6-2.4,1c-11.6,5.4-18.7,14.3-20.6,27
	c-0.9,6-1.3,12-1.8,18.1c-0.7,7.7-1.7,15.3-4.7,22.5c-6.2,14.8-16.2,26.2-31.1,32.7c-7,3.1-14.3,4.8-22,3.8
	c-3.7-0.5-7.3-1.3-10.5-3.5c-1.7-1.2-3.2-2.7-4.8-4.1c-0.3-0.2-0.5-0.5-0.8-0.8c-1.8,1.6-3.5,3.3-5.3,4.8
	c-6.3,5.5-12.9,10.6-20.6,14.1c-3.8,1.7-7.7,2.9-11.9,2.7c-4-0.2-7.2-1.9-9.8-4.9c-3.5-4-5.7-8.5-7.1-13.6c-0.1-0.3-0.2-0.6-0.3-0.9
	l-0.1-0.1c-0.8,1.3-1.7,2.5-2.5,3.8c-5.7,8.1-13.2,14.4-21.6,19.7c-9.8,6.1-20.3,10.5-31.7,12.6c-7.2,1.4-14.5,1.9-21.8,0.3
	c-6.3-1.3-11.9-3.9-15.9-9.1c-3.4-4.4-4.9-9.4-5.4-14.9c-0.9-8.2,1.5-15.6,4.8-22.9c4.2-9,9.5-17.5,15-25.8
	c7.6-11.7,15.1-23.4,22.7-35c0.5-0.7,0.5-1.3,0.3-2.1c-2.1-8.3-4-16.6-2.2-25.3c1.8-8.4,8.5-13.8,17-13.8c4.5,0,7,2,8.4,6.6
	c1.3,4.3,0.8,8.5-0.4,12.6c-2.2,7.6-6.1,14.3-10.9,20.5c-0.6,0.8-0.7,1.4-0.2,2.3c2.3,3.8,4.7,7.6,7,11.4c4.2,7,8.6,13.9,12.4,21
	c5.7,10.5,5,21.4,0,32c-1.7,3.7-4.2,7.1-6.3,10.6c-0.1,0.2-0.3,0.4-0.5,0.6c0.1,0.1,0.2,0.3,0.3,0.4c2.7-1,5.6-1.7,8.2-3
	c10.4-5,18.2-12.8,24.1-22.6c0.2-0.4,0.4-0.8,0.4-1.2c1.9-15.7,3.9-31.4,5.8-47.2c0-0.2,0-0.5,0.1-0.9c-2.9,0.6-5.6,1.2-8.6,1.9
	c0.2-1.7,0.4-3.2,0.5-4.7c0.7-6.2,1.4-12.3,2.1-18.5c0.1-1,0.4-1.4,1.4-1.5c2.2-0.4,4.2-0.9,6.4-1.3c0.8-0.2,1.1-0.5,1.2-1.3
	c1.2-10.7,2.5-21.4,3.8-32.1c1.1-8.4,2.1-16.8,3.1-25.2c0.1-0.6,0.2-1.1,1-1.3c8.5-1.8,16.9-3.6,25.4-5.4c0.2-0.1,0.4,0,0.8-0.1
	c-2.4,19.8-4.8,39.5-7.3,59.5c3.4-0.7,6.6-1.4,9.9-2.2c-0.1,0.5-0.1,0.9-0.1,1.3c-0.8,7.3-1.7,14.7-2.4,22c-0.1,1-0.5,1.4-1.4,1.5
	c-2.6,0.5-5.2,1.1-7.8,1.6c-0.8,0.2-1,0.5-1.1,1.3c-1.7,16-3.5,32-5.2,48.1c-0.5,5.3-0.5,10.6,0.7,15.8c0.4,1.8,1.3,3.5,2.1,5.3
	c0.8,1.8,2.4,2.5,4.3,2.1c2.1-0.4,4.2-1,6-2c2.9-1.6,5.5-3.6,8.2-5.5c0.3-0.2,0.5-0.8,0.4-1.2c-1.5-5.2-1.7-10.4-1.1-15.7
	c1.4-12.3,2.6-24.6,4.4-36.9c2.7-17.7,11.8-31.4,26.6-41.3c7.5-5,15.7-7.9,24.7-8.2c8.3-0.3,15.4,2.6,21.2,8.5
	c0.1,0.2,0.3,0.3,0.5,0.5c0.5-0.7,1-1.5,1.5-2.2c7.3-10.2,16.9-16.6,29.3-18.8c4.3-0.7,8.4-1.8,12.7-2.7c2.6-0.5,5.2-0.5,7.8,0.4
	c3.3,1.1,5,3.5,4.7,7c-0.5,5.5-1.2,11.1-1.8,16.5c-1.9,16.7-3.8,33.5-5.7,50.2c-0.5,4.5,0.9,8.4,3.9,11.6c2.9,3.2,6.1,3.5,9.4,0.8
	c4.3-3.4,7.2-8,9.6-12.9c1.9-3.9,2.1-8,2.6-12.1c2.7-22.9,5.5-45.8,8.2-68.8c0.1-0.7,0.1-1.2,1-1.3c8.5-1.8,17-3.6,25.4-5.4
	c0.2-0.1,0.4-0.1,0.8-0.1c-0.1,0.5-0.1,0.9-0.1,1.3c-2.3,20.1-4.8,40.2-6.9,60.3c-2.1,19.6-4.9,39.2-7.3,58.7
	c-2,15.9-3.7,31.8-5.5,47.8c-1.8,15.6-9,28.3-20.9,38.5c-6.1,5.2-12.9,9.3-20.7,11.4c-7.4,2.1-14.9,2.6-22.2-0.3
	c-8.4-3.4-13.1-9.7-14.9-18.5c-2.1-10-0.5-19.5,3.5-28.7c6.5-15.1,17-26.3,32.1-32.9c2.7-1.2,5.6-1.9,8.5-2.6s5.6-1.7,7.9-3.7
	C374.6,364.9,375.9,361.9,375.7,358.9z M127.8,336.5c-0.2,0.5-0.4,0.7-0.5,0.9c-2.7,6-5.6,12-8.2,18.1c-2.6,6.3-5.1,12.8-7.3,19.3
	c-1.7,5.2,0.5,11,4.9,14.3c1.5,1.1,3.2,1.5,5,1.1c4-1,7.3-3.2,9.7-6.6c4.5-6.2,5.5-13.3,4.4-20.7
	C134.4,353.8,130.8,345.4,127.8,336.5z M257.5,342.5c0.5-0.4,0.7-0.6,0.9-0.8c10.2-11.6,19.7-23.6,29-35.8c0.3-0.3,0.5-0.9,0.4-1.3
	c-0.5-2.8-0.9-5.6-1.6-8.3c-0.7-2.6-2.1-4.9-4.6-6.2c-4.7-2.4-10.7-1.2-13.7,3.2c-1.2,1.8-2.3,3.8-2.9,5.9
	c-1.1,3.9-1.8,7.9-2.5,11.9c-1.5,8.1-2.8,16.2-4.2,24.3C257.9,337.7,257.8,339.9,257.5,342.5z M373.6,390.4c-2.8,1-5.4,1.8-7.9,2.7
	c-3.6,1.3-7.2,2.7-10.1,5.3c-4.3,3.9-6.9,8.8-8.4,14.3c-1.1,4.2-1,8.4,1.1,12.2c3.3,6.2,7.7,7,12.9,3l0.1-0.1
	c4.1-3.3,6.6-7.6,8.3-12.4c2-5.7,2.6-11.6,3.2-17.6C373.1,395.5,373.3,393.1,373.6,390.4z M286.8,323.1c-0.1-0.1-0.2-0.1-0.3-0.1
	c-0.4,0.3-0.7,0.7-1,1c-4.5,4.8-9.1,9.5-13.5,14.4c-4.1,4.6-8,9.4-12.1,14c-0.6,0.8-0.7,1.4-0.2,2.2c2.2,3.6,6.8,5.8,11.2,4.9
	c5.7-1.2,9-5.1,10.6-10.4c1.6-5.4,2.6-10.9,3.8-16.5C285.9,329.4,286.3,326.2,286.8,323.1z M132,293.8c0.2-0.2,0.3-0.2,0.4-0.3
	c1.5-3.7,3.1-7.5,3.5-11.5c0.1-1-0.1-2.1-0.3-3.1c-0.1-0.8-0.7-1-1.5-0.7c-2,0.7-2.8,2.3-3.1,4.1C130.3,286.2,130.7,290,132,293.8z"
	/>
</svg>
