<?xml version="1.0" encoding="utf-8"?>
<!-- Generator: Adobe Illustrator 18.1.0, SVG Export Plug-In . SVG Version: 6.00 Build 0)  -->
<svg version="1.1" id="Layer_1" xmlns="http://www.w3.org/2000/svg" xmlns:xlink="http://www.w3.org/1999/xlink" x="0px" y="0px"
	 width="24px" height="30px" viewBox="622.5 264 24 30" enable-background="new 622.5 264 24 30" xml:space="preserve">
<path fill="#392B28" d="M644.7,284.3c-3.6,8.5-10.9,8.5-13.2,8.5c-1.4,0-2.9-0.2-4.2-0.8c-1.1-0.5-2.1-1.2-2.7-2.4
	c-0.5-1-0.5-2-0.4-3.1c0.2-1.6,0.9-2.9,1.9-4.2c1.2-1.6,2.6-3,3.9-4.3c1.9-1.9,3.9-3.9,5.8-5.8c0.1-0.1,0.1-0.2,0.1-0.4
	c-0.1-1.7-0.1-3.4,0.6-4.9c0.7-1.5,2.2-2.3,3.8-1.9c0.9,0.2,1.3,0.7,1.3,1.6c0.1,0.9-0.2,1.7-0.6,2.4c-0.7,1.4-1.8,2.5-2.9,3.5
	c-0.2,0.1-0.2,0.2-0.1,0.4c0.3,0.8,0.6,1.7,0.9,2.5c0.5,1.5,1.1,3,1.5,4.5c0.7,2.3,0.1,4.3-1.3,6.1c-0.5,0.6-1.1,1.2-1.6,1.8
	c0,0-0.1,0.1-0.1,0.1c0,0,0,0.1,0,0.1c0.6-0.1,1.1-0.1,1.7-0.2C641.4,287.1,643.2,285.9,644.7,284.3 M635,278
	c-0.1,0.1-0.1,0.1-0.1,0.2c-0.8,1-1.6,2.1-2.3,3.1c-0.8,1.1-1.5,2.2-2.2,3.4c-0.5,0.9-0.4,2.1,0.3,2.9c0.2,0.3,0.5,0.4,0.9,0.4
	c0.8,0,1.5-0.3,2.1-0.9c1.1-1,1.6-2.3,1.7-3.8C635.5,281.6,635.2,279.8,635,278z M637.5,270C637.6,270,637.6,269.9,637.5,270
	c0.5-0.7,1-1.4,1.2-2.1c0.1-0.2,0.1-0.4,0.1-0.6c0-0.2-0.1-0.2-0.3-0.2c-0.4,0.1-0.6,0.3-0.8,0.7C637.5,268.4,637.4,269.2,637.5,270
	z"/>
</svg>
