<?xml version="1.0" standalone="no"?>
<!DOCTYPE svg PUBLIC "-//W3C//DTD SVG 20010904//EN"
 "http://www.w3.org/TR/2001/REC-SVG-20010904/DTD/svg10.dtd">
<svg version="1.0" xmlns="http://www.w3.org/2000/svg"
 width="270.000000pt" height="270.000000pt" viewBox="0 0 270.000000 270.000000"
 preserveAspectRatio="xMidYMid meet">
<metadata>
Created by potrace 1.11, written by Peter Selinger 2001-2013
</metadata>
<g transform="translate(0.000000,270.000000) scale(0.100000,-0.100000)"
fill="#000000" stroke="none">
<path d="M0 1350 l0 -1350 1350 0 1350 0 0 1350 0 1350 -1350 0 -1350 0 0
-1350z m900 588 c30 -14 69 -37 85 -51 l30 -25 -23 -25 c-44 -47 -65 -52 -109
-24 -123 78 -307 44 -424 -80 -173 -183 -148 -449 54 -555 64 -34 191 -32 271
5 l58 27 39 -31 c22 -17 37 -35 34 -39 -10 -17 -114 -71 -167 -87 -67 -21
-189 -22 -248 -4 -317 102 -377 523 -109 776 116 109 208 146 354 143 84 -3
109 -7 155 -30z m1306 21 c47 -12 49 -15 38 -81 l-7 -38 -57 0 c-75 0 -86 -13
-110 -135 -28 -135 -31 -126 43 -123 55 3 62 5 65 25 3 21 118 123 140 123 6
0 4 -24 -4 -62 -20 -94 -25 -88 72 -88 l86 0 -7 -42 c-13 -82 -7 -78 -103 -78
l-87 0 -26 -132 c-14 -73 -23 -141 -21 -150 6 -24 55 -41 93 -33 l32 7 -7 -48
c-3 -26 -11 -53 -17 -59 -5 -5 -38 -10 -72 -9 -114 0 -164 51 -153 153 5 51
23 151 41 239 l8 32 -65 0 -65 0 -18 -92 c-9 -51 -30 -158 -45 -238 -16 -80
-36 -189 -46 -242 l-18 -98 -62 0 c-54 0 -62 2 -59 18 2 9 10 55 19 102 20
109 91 477 102 528 4 21 1 22 -51 22 -30 0 -55 4 -55 8 0 5 29 32 65 60 69 56
70 58 95 197 21 122 75 202 156 230 48 17 46 17 100 4z m-541 -384 c59 -30 85
-75 85 -149 0 -52 -29 -215 -62 -348 l-9 -38 -54 0 c-49 0 -55 2 -55 21 0 20
0 20 -32 -3 -25 -17 -46 -23 -88 -22 -69 0 -112 22 -147 75 -54 82 -26 183 65
236 39 23 57 27 117 26 38 0 83 -6 99 -12 38 -15 49 -1 42 54 -9 73 -65 92
-175 59 -29 -8 -55 -14 -56 -12 -2 2 2 28 8 58 12 51 15 55 52 67 57 18 162
12 210 -12z m-500 -15 c-8 -24 -11 -24 53 0 62 24 117 27 109 6 -3 -7 -9 -34
-12 -60 -7 -46 -7 -46 -47 -46 -50 0 -107 -26 -120 -55 -5 -12 -24 -98 -42
-191 l-31 -169 -58 -3 c-67 -4 -65 -13 -37 135 11 59 27 146 36 193 17 96 34
179 39 198 3 8 24 12 60 12 52 0 56 -2 50 -20z m-320 -692 c3 -3 3 -12 0 -20
-5 -12 -14 -13 -48 -5 -87 20 -147 -35 -147 -133 0 -99 60 -153 147 -133 39 9
43 8 43 -8 0 -43 -134 -38 -181 7 -74 70 -61 232 23 284 26 17 45 20 95 18 34
-2 65 -6 68 -10z m279 -11 l23 -23 27 23 c20 17 39 23 74 23 88 -1 102 -28
102 -199 0 -110 -2 -131 -15 -131 -12 0 -15 19 -15 114 0 63 -4 126 -10 140
-19 51 -87 59 -130 16 -18 -18 -20 -34 -20 -145 0 -118 -1 -125 -20 -125 -19
0 -20 7 -20 125 0 120 -1 127 -25 150 -26 27 -51 31 -88 14 -38 -17 -47 -51
-47 -174 0 -108 -1 -115 -20 -115 -19 0 -20 7 -20 160 0 131 3 160 14 160 8 0
16 -5 18 -12 3 -8 11 -7 28 5 37 26 115 23 144 -6z m515 8 c6 -6 7 -16 2 -23
-6 -10 -17 -11 -54 -2 -67 17 -117 0 -117 -41 0 -28 6 -33 68 -61 86 -39 112
-62 112 -104 0 -18 -3 -40 -6 -49 -10 -26 -59 -45 -118 -45 -70 0 -106 13
-106 40 0 18 3 19 22 9 12 -7 48 -12 80 -13 47 -1 61 3 79 21 36 35 15 65 -78
110 -83 41 -102 65 -89 116 10 41 50 58 128 54 37 -1 72 -7 77 -12z"/>
<path d="M1416 1249 c-19 -15 -26 -30 -26 -54 0 -49 41 -73 106 -60 41 7 104
59 104 86 0 47 -134 67 -184 28z"/>
</g>
</svg>
