<svg xmlns="http://www.w3.org/2000/svg" style="width:0; height:0; visibility:hidden;">
    <symbol id="icon-bass" viewBox="0 0 432.5 431.3">
      <path fill="#FFF" d="M79.7 418.4l-32.5-23.5-36.5-51.5-4.5-29.5 13-38 21.5-17.5 37.5-16.5 29-29 20.5-29 28.5-15.5 13 4-1 9-10.5 13-9 22v21.5l7.5 4.5 31-32L323.7 74.9l7.5-30.5 60-34.5s16.5-3 18-2.5 16.5 9.5 16.5 9.5l1.5 16.5-15 19-14.5.5-11.5 4.5-12.5 28-32 13-160.5 168.5 7.5 8.5 25.5-.5 27-18.5 14.5-17 11.5 2 2.5 14.5-8.5 21-20 15.5-35.5 19-10 14s-12.5 25-12.5 26.5-14 39.5-14 39.5l-22 22-31.5 15-36-10z"/><path d="M343.7 98.9L319 74.2l6.9-32.9 2.2-1.3c10.4-6.1 20.3-11.7 29.4-17.3 9.5-5.2 19-11.3 29.4-17.3C394.4.6 411.2-5 424.2 8c10 10 12.5 27.3-1.3 41.1-9.1 9.1-19.9 12.1-30.7 8.2l-14.7 33.8-33.8 7.8zm-12.1-27.7l16 16 22.1-3.9 16.9-39.4 5.2 2.6c8.7 4.3 16 3 23.4-4.3 10-10 6.1-20.8 1.3-25.5-9.5-9.5-23.4-.9-23.4-.9-10.4 6.1-20.3 11.7-29.4 17.3-8.7 5.2-17.7 10-27.3 16l-4.8 22.1z"/><path d="M167.2 287.6l-33.3-33.3L327.3 66.9l26.4 26.4-186.5 194.3zm-17.8-33.4l17.3 17.3L338.1 93.3l-10.8-10.8-177.9 171.7z"/><path d="M46.9 398.3c-9.5-9.5-19.5-21.2-29-35.1-14.7-21.6-20.4-41-16.9-60.9 3.9-21.2 18.2-40.7 37.2-51.1 7.4-3.9 14.7-6.9 21.6-9.5 6.9-2.6 13.4-5.6 19.5-8.2 11.3-6.1 17.3-15.6 24.7-26.4 2.2-3 3.9-6.5 6.1-9.5 10.8-15.1 24.2-27.7 38.1-33.8 10-4.8 20.3-2.2 25.1 5.2 3.5 5.2 3.9 14.3-6.1 22.5-12.1 10.4-17.7 32.5-13 45.9 1.3 3 0 6.1-3 7.4s-6.1 0-7.4-3c-7.8-19 2.2-46.3 16-58.4 3.9-3 5.2-6.1 3.9-8.2-.9-1.7-5.2-3.5-11.3-.9-12.1 5.2-24.2 16.4-33.3 29.9-2.2 3-4.3 6.1-5.6 9.1-6.9 11.3-14.3 22.9-28.6 30.3-6.9 3.5-13.8 6.1-20.3 9.1-7.4 3-14.3 5.6-20.3 9.1-16.4 8.7-28.6 25.1-32 43.3-3 16.9 1.7 33.8 15.1 53.2C56 399 82.8 419.8 110.1 421c23.8 1.3 41.1-17.7 48.9-29 7.8-11.3 11.7-23.8 16.4-37.2 3.5-10.4 6.9-20.8 12.1-31.2 6.5-12.5 18.6-18.6 30.3-24.2 5.2-2.6 10-4.8 14.3-7.4 12.5-8.2 27.7-21.6 31.6-38.5 1.7-6.9.4-8.2-1.7-9.5-1.3-.4-2.6-.9-3.9-.4-.9 0-1.7.9-1.7 1.7-5.2 13-19.9 26-37.2 32.9-14.7 6.1-28.6 6.1-39.4 1.3l.9-6.1 2.6-5.2.4.4c8.2 3.9 19.9 3.5 31.6-1.3 14.3-5.6 26.8-16.4 31.2-26.8 1.7-4.3 4.3-6.9 9.1-8.2 4.3-1.7 9.1-.4 13 1.7 10.4 6.1 7.4 16.9 6.5 21.2-3.9 16-16 31.6-36.4 45-4.8 3-10.4 6.1-15.6 8.7-10.4 5.2-20.3 10-25.5 19.5-4.8 9.1-8.2 18.6-11.7 29-4.8 13.4-9.1 27.3-17.7 40.2-16 22.9-37.2 34.6-58.9 33.8-20.9-1.9-41.7-12.3-62.4-33.1z"/><path d="M151.6 305.7l-36.4-36.4c-2.2-2.2-2.2-5.6 0-7.8s5.6-2.2 7.8 0l36.4 36.4c2.2 2.2 2.2 5.6 0 7.8s-5.7 2.2-7.8 0zM126.1 331.3l-36.4-36.4c-2.2-2.2-2.2-5.6 0-7.8s5.6-2.2 7.8 0l36.4 36.4c2.2 2.2 2.2 5.6 0 7.8-2.2 2.1-5.7 2.1-7.8 0zM102.7 354.6l-36.4-36.4c-2.2-2.2-2.2-5.6 0-7.8s5.6-2.2 7.8 0l36.4 36.4c2.2 2.2 2.2 5.6 0 7.8s-5.7 2.2-7.8 0z"/><circle cx="115.2" cy="385.4" r="8.6"/><circle cx="144.7" cy="374.1" r="8.6"/>
    </symbol>
    <symbol id="icon-close" viewBox="0 0 581.4 581.4">
      <path fill="#FFF" stroke="#000" stroke-miterlimit="10" d="M255.7 460.7l153-6 90-148-94-148-222-43-70 104 34 167 80 103z"/><path d="M290.7 0C130.2 0 0 130.1 0 290.7s130.2 290.7 290.7 290.7 290.7-130.1 290.7-290.7S451.2 0 290.7 0zm102.6 354.2c10.8 10.8 10.8 28.3 0 39.1-5.4 5.4-12.5 8.1-19.6 8.1-7.1 0-14.2-2.7-19.6-8.1l-63.5-63.5-63.5 63.5c-5.4 5.4-12.5 8.1-19.6 8.1s-14.2-2.7-19.6-8.1c-10.8-10.8-10.8-28.3 0-39.1l63.5-63.5-63.5-63.5c-10.8-10.8-10.8-28.4 0-39.1 10.8-10.8 28.3-10.8 39.1 0l63.5 63.5 63.5-63.5c10.8-10.8 28.3-10.8 39.1 0s10.8 28.3 0 39.1l-63.5 63.5 63.7 63.5z"/>
    </symbol>
    <symbol id="icon-drums" viewBox="0 0 524.3 331.7">
      <path fill="#FFF" d="M9.9 150.7l54.5-.5 46-1 5.5 11 3.5 118-8 8.5-100.5.5-5-9.5zM155.4 162.7l14.5-22 30.5-17 40.5-9 31.5 6 33.5 16 25 31 14.5 31 3 33.5-9.5 30-14.5 25.5-26.5 23.5-45 14.5-41-6-38.5-19.5-25.5-31.5-11.5-36.5 5-41.5z"/><path fill="#FFF" d="M330.4 155.7l99.5.5 12 8.5-2 37.5-10 5-82.5-.5zM468.4 102.7l10-7 3.5-15.5-13-5-13 1.5-36.5-17 36.5-8.5 36-11.5-7-9.5-61-14.5-21.5 3-15-10.5h-18.5l-5.5 10-8.5-4.5-65 15-12.5 7.5 9 8s52.5 15 54 15.5 57.5-4 57.5-4l36.5 17 23 10.5.5 15.5 10.5 4z"/><path d="M522.6 320.7l-48.3-49v-167c3.1-1.2 5.5-2.4 8-4.9l27.5 13.5c.6.6 1.8.6 2.4.6 2.4 0 4.3-1.2 5.5-3.7 1.2-3.1 0-6.7-3.1-8l-27.5-13.5v-2.4c0-10.4-8.6-19.6-19.6-19.6-5.5 0-10.4 2.4-14.1 6.1L429 61.2c31.2-3.1 65.5-9.8 65.5-25.1 0-20.8-61.2-25.7-93.6-26.9-4.3-5.5-11-9.2-19-9.2-7.3 0-14.7 3.7-19 9.2-32.4 1.2-93.6 6.1-93.6 26.9 0 26.9 101 27.5 112 27.5 3.1 0 11 0 21.4-.6l44.1 21.4v2.4c0 8.6 5.5 15.9 13.5 18.4v167.1l-44.1 49c-2.4 2.4-1.8 6.1.6 8.6 1.2 1.2 2.4 1.8 4.3 1.8 1.8 0 3.1-.6 4.3-1.8L467 284l45.3 45.9c1.2 1.2 3.1 1.8 4.3 1.8 1.8 0 3.1-.6 4.3-1.8 4.2-3.1 4.2-6.8 1.7-9.2zM283.4 35.5c4.3-4.9 31.2-12.9 75.9-14.7v2.4c0 3.7 2.4 6.1 6.1 6.1 3.7 0 6.1-2.4 6.1-6.1 0-6.1 5.5-11.6 11.6-11.6s11.6 5.5 11.6 11.6c0 3.7 2.4 6.1 6.1 6.1s6.1-2.4 6.1-6.1v-2.4c44.7 1.8 71.6 9.8 75.9 14.7-4.9 5.5-40.4 15.3-99.8 15.3s-94.7-9.2-99.6-15.3zm184.8 43.4c3.7 0 7.3 3.1 7.3 7.3 0 3.7-3.1 7.3-7.3 7.3-3.7 0-7.3-3.1-7.3-7.3.5-3.6 3.6-7.3 7.3-7.3z"/><path d="M384.9 271.7v-60h45.9c7.3 0 13.5-6.1 13.5-13.5v-34.9c0-7.3-6.1-13.5-13.5-13.5H328.7c-20.2-25.7-51.4-41.6-86.9-41.6-61.2 0-110.8 49.6-110.8 110.8 0 23.9 7.3 45.9 20.2 63.6l-22 37.9c-1.8 3.1-.6 6.7 2.4 8.6 1.2.6 1.8.6 3.1.6 1.8 0 4.3-1.2 5.5-3.1l19.6-33.7c20.2 22.6 49.6 36.7 82 36.7s61.8-14.1 82-36.7l19.6 33.7c1.2 1.8 3.1 3.1 5.5 3.1 1.2 0 1.8 0 3.1-.6 3.1-1.8 3.7-5.5 2.4-8.6l-22-37.9c12.9-18.4 20.2-40.4 20.2-63.6 0-2.4 0-5.5-.6-8h20.8v60l-23.3 25.1c-2.4 2.4-2.4 6.1 0 8.6 1.2 1.2 2.4 1.8 4.3 1.8 1.8 0 3.1-.6 4.3-1.8l20.8-22 23.3 23.9c1.2 1.2 3.1 1.8 4.3 1.8 1.8 0 3.1-.6 4.3-1.8 2.4-2.4 2.4-6.1 0-8.6l-25.9-26.3zm-143.2 47.2c-54.5 0-98.5-44.1-98.5-98.5s44.1-98.5 98.5-98.5 98.5 44.1 98.5 98.5c.1 53.8-44 98.5-98.5 98.5zm94.9-156.1h94.9c.6 0 1.2.6 1.2 1.2v34.9c0 .6-.6 1.2-1.2 1.2h-80.8c-2.5-13.4-7.4-25.7-14.1-37.3z"/><path d="M265.6 260.1c-12.2 0-22 9.8-22 22s9.8 22 22 22 22-9.8 22-22-9.8-22-22-22zm0 31.8c-5.5 0-9.8-4.3-9.8-9.8 0-5.5 4.3-9.8 9.8-9.8 5.5 0 9.8 4.3 9.8 9.8 0 5.5-4.3 9.8-9.8 9.8zM108.3 142.6H14.1c-8 0-14.1 6.7-14.1 14.1v120.6c0 8 6.7 14.1 14.1 14.1h7.3v20.8c0 3.7 2.4 6.1 6.1 6.1s6.1-2.4 6.1-6.1v-20.8h22.6c0 .6-.6 1.2-.6 1.8v6.7c0 3.7 2.4 6.1 6.1 6.1s6.1-2.4 6.1-6.1v-6.1c0-.6 0-1.2-.6-1.8h23.3v20.8c0 3.7 2.4 6.1 6.1 6.1s6.1-2.4 6.1-6.1V292h4.9c8 0 14.1-6.7 14.1-14.1V157.3c.7-8-5.4-14.7-13.4-14.7zm1.9 135.2c0 1.2-1.2 1.8-1.8 1.8h-5.5v-10.4c0-3.7-2.4-6.1-6.1-6.1s-6.1 2.4-6.1 6.1v11h-57v-11c0-3.7-2.4-6.1-6.1-6.1s-6.1 2.4-6.1 6.1v11h-7.3c-1.2 0-1.8-1.2-1.8-1.8V157.3c0-1.2 1.2-1.8 1.8-1.8h94.2c1.2 0 1.8 1.2 1.8 1.8v120.5z"/>
    </symbol>
    <symbol id="icon-kassert" viewBox="0 0 440.6 440.4">
      <path fill="#FFF" d="M92 427.8l-34-24-38.5-38-14-37.5 8-34 23-25 39-18.5 43.5-15.5 18-23 16.5-22 24.5-7 23.5 7.5 17 10.5 60.5-59 69-69 1.5-20.5 22-11.5 32-35.5 20 12 11 17.5-16 18-31.5 37-22.5 6-14.5 15-110 114.5 12.5 21.5 4 26-9 19.5-28.5 16-17.5 26-9.5 25.5-23 50.5-31.5 25-27-.5z"/><path d="M200.9 256.6l151-157.9-10.8-10.9-157.5 151.5-7.4-8.2L341.1 72.3l26 25.9-158 165.8z"/><path d="M145.5 294.7c-14.3-14.3-13.8-37.2.9-51.9 14.7-14.7 37.6-15.1 51.9-.9 14.3 14.3 13.8 37.2-.9 51.9-14.7 14.8-37.6 15.2-51.9.9zm45-45c-9.5-9.5-26-9.5-36.4.9-10.4 10.4-10.8 26.4-.9 36.4 10 10 26 9.5 36.4-.9 10-10 10.4-26.9.9-36.4zM108.267 371.785l-39.385-39.386 7.778-7.778 39.385 39.386z"/><path d="M42.5 397.7c-48.5-48.5-55.4-90-21.2-124.2 15.6-15.6 44.6-29 80.5-38.1 12.1-2.6 22.5-11.3 27.7-22.5 3.9-8.2 8.7-14.7 13.4-19.5 21.2-21.2 46.3-20.3 74.4 1.7l-6.9 8.7c-23.8-18.6-42.8-19.5-59.7-2.6-3.9 3.9-7.8 9.5-11.3 16.4-7.4 14.3-20.3 24.7-35.5 28.6-33.3 8.2-61 21.2-74.9 35.1-29.4 29.4-22.5 64.9 21.2 108.6s79.2 50.6 108.6 21.2c13.8-13.8 26-40.7 34.2-74 3.9-15.1 14.3-28.1 29.4-36.4 6.9-3.5 12.5-7.4 16.4-11.3 17.7-17.7 16-37.6-4.8-62.7l8.7-6.9c24.7 29.9 26.4 55.8 4.3 77.9-4.8 4.8-11.3 9.5-19.5 13.4-12.1 6.1-20.8 16.4-23.8 29-8.7 35.5-22.1 64.5-37.2 79.6-34 33.4-75.5 26.5-124-22z"/><path d="M110.908 383.844l-54.941-54.942 7.778-7.778 54.941 54.942zM336.3 76.2c3.9-5.6 9.1-15.1 7.8-19.9l-1.3-4.8 3.9-2.2s25.1-13 54.1-46.3l3-3 23.8 12.5 13 23.4-3 3c-33.8 29.4-46.7 53.7-47.2 54.1l-2.2 3.9-4.8-1.3c-4.8-1.3-15.1 3.9-19.9 7.8l-6.5-9.1c2.6-1.7 14.7-10.4 25.5-10 4.3-7.8 18.2-27.7 43.3-51.1l-6.5-12.5-13-6.9c-23.4 26-43.3 38.9-51.1 43.3.4 10.8-8.2 22.9-10 25.5l-8.9-6.4z"/>
    </symbol>
    <symbol id="icon-maraccas" viewBox="0 0 422.4 415.9">
      <path fill="#FFF" d="M218.3 407.4l29.2-15.6 3.7-15.4s-37.9-41.5-37.4-42.8c.5-1.3-23.3-67.1-23.3-67.1l25.3-11.9 21.5 18.7 39.2 12 37.6-1.8 16.8-.8 57.8-35.4 23.4-46.7 1.5-53.3-28.3-30.3-69.7-20.3-44.9 12.8-54.4 49.4s-12.8 38.4-12.5 40.5c.2 2.1-9.8 23.8-9.8 23.8l-19.2 1-10.5-23.7 24.5-37.1 6.3-40.3-17.4-51.7L149.9 34 100 8.4l-40.3 7.4s-32.5 26-33 27.3-19 40.2-19 40.2l-.1 52.3 26 46.2s43.9 28 44.8 29.8c.8 1.8 43 7.3 43 7.3l15.5 24-8 14.8-62.2 26.7-47.2 9.4-4.2 16.7 12.2 27.4 12.7 2.7 22-12.7 13.7-17.8 64.2-23.9 10.6-2.7 15.7 12.4s11.9 32.3 13 34.8c1.1 2.4 20.1 56.7 20.1 56.7l6.1 15 12.7 5z"/><path d="M252.8 285.7c29.5 11 64.7 8.9 96.4-5.6 58.6-26.8 88.1-88.2 65.9-136.9-9.4-20.6-27.3-36.5-50.2-45.1-29.5-11-64.7-8.9-96.4 5.6-28.1 12.9-50.5 34-63 59.6-7.9 16.1-11.2 32.7-10.1 48.7l-16.1 8.2-6.7-16.3c11.8-11.5 20.5-26.6 25.1-44.4 5.7-22.1 4.8-46.1-2.4-69.4-.3-1.6-.7-3.1-1.3-4.4 0 0-.1 0 0-.1-1.4-4.2-3.1-8.4-5-12.5-14.7-31.6-40-56.1-69.5-67-23-8.5-47-8-67.5 1.3C3.4 29.6-14.3 95.4 12.5 154c2 4.3 4.2 8.3 6.5 12.4.7 1.4 1.5 2.6 2.4 3.8 14.9 23.8 36.2 42.1 60.5 51.1 12.9 4.8 26.1 6.6 38.8 5.7l9.3 18.3-61.2 31.2c-1.2.6-2.3 1-3.6 1.3-10 2.1-41.7 8.1-41.7 8.1-6.4 1.2-11.7 5.1-14.7 10.9-3 5.8-3.1 12.4-.5 18.2l10.3 22.6c2.3 5 6.5 9 11.7 10.9 6.9 2.6 14.5 1.4 20.2-3.2 0 0 25.2-20 33.4-26.2 1-.7 2.1-1.4 3.4-1.9l65.5-26.7 32.2 63.1c.6 1.2 1 2.3 1.3 3.6 2.1 10 8.1 41.7 8.1 41.7 1.3 7.3 6.3 13.2 13.3 15.8 5.2 1.9 10.9 1.8 16-.6l22.6-10.3c5.9-2.7 10.1-7.9 11.6-14.1 1.5-6.3 0-12.8-4-17.8 0 0-20-25.2-26.3-33.4-.7-1-1.4-2.1-1.8-3.4l-25.9-63.6 18.6-7.5c9.3 9.2 20.9 16.7 34.3 21.7zm-36.7 61.5c6.3 8.2 26.4 33.6 26.4 33.6 1.2 1.5 1.6 3.4 1.2 5.2-.4 1.8-1.6 3.3-3.4 4.1l-22.6 10.3c-1.4.7-3.1.7-4.6.2-2-.7-3.4-2.5-3.8-4.6 0 0-6.1-31.8-8.2-41.9-.5-2.6-1.4-5-2.7-7.3l-31.6-61.9 19.4-8 25.9 63.5c1.1 2.5 2.3 4.8 4 6.8zm143.5-235.1c19.5 7.3 34 20.1 41.9 37.4 18.9 41.2-7.4 93.8-58.6 117.2-5.5 2.5-11.1 4.5-16.7 6.1l26.7-31.7c1.8-2.2 2.2-5.1 1.1-7.7-1.1-2.5-3.6-4.3-6.4-4.4l-45.1-2.5 26.9-37.6c1.5-2.2 1.9-5 .7-7.4-1.1-2.4-3.5-4.1-6.1-4.3l-46-4.1 27.6-35.8c1.7-2.2 2-5.3.8-7.8s-3.8-4.2-6.6-4.2l-39.1-.4c4.4-2.7 9-5.3 13.9-7.5 28.1-13 59.2-14.9 85-5.3zm-140.9 57.8c5.5-11.3 13.4-21.7 22.9-30.6.2 0 .5.2.7.2l42.5.5-26.7 34.8c-1.7 2.1-2 5-.9 7.5s3.4 4.1 6.1 4.4l46.6 4.2-27.2 38c-1.6 2.2-1.8 5.1-.7 7.5 1.2 2.4 3.5 4.1 6.3 4.2l43.7 2.5-27.4 32.5c-.4.5-.7 1.2-1 1.8-15.9 1.5-31.6-.1-45.7-5.4-11.9-4.4-21.9-11-29.8-19.3l-2.3-2.7c-2-2.3-3.8-4.8-5.4-7.3-.1-.1-.2-.3-.2-.4-1.6-2.5-3-5.1-4.2-7.7-1.3-2.9-2.4-5.8-3.3-8.9 0-.1 0-.2-.1-.3-.8-3.1-1.5-6.3-2-9.6l-.3-2.4c-1.4-14.2 1.3-29.1 8.4-43.5zM58.2 20.9c17.2-7.9 36.6-8.2 56.2-.9 25.9 9.6 48.1 31.3 61 59.5 2.1 4.7 3.9 9.5 5.4 14.3.4 4.2-2.7 11.9-13.1 22.2-12.1 12-30.4 24-51.3 33.5-42 19.2-75.5 19.7-83.1 11.8-2.6-4.3-5.1-8.7-7.3-13.4-23.4-51.2-9-108.2 32.2-127zm-9.9 160c20.8 1.1 48.7-6.3 74.3-18 22.5-10.3 42.2-23.2 55.6-36.5 3.1-3.1 5.6-6 7.9-8.9 1.4 13 .5 26-2.7 38.2-4.4 16.8-12.9 30.6-24.4 40.5l-.2.2c-4.9 4.1-10.1 7.5-15.4 9.9-2.8 1.2-5.8 2.4-8.9 3.3-.1 0-.1 0-.2.1-3.1.9-6.4 1.6-9.7 2l-3.5.4c-11 1-22.4-.6-33.9-4.8-14.6-5.3-27.8-14.5-38.9-26.4zm95 57.7l-7.2-14.1c.5-.1 1-.3 1.5-.5 1.6-.4 3.3-.9 4.8-1.5 2.4-.9 4.7-1.7 6.9-2.7 2.4-1.1 4.8-2.4 7.1-3.8 1.1-.6 2.1-1.3 3.2-2 .3-.2.5-.4.8-.5l5.5 13.4-13.4 6.9-9.2 4.8zm65.5 13.1l-31.7 13-30.7 12.5L82 303.5c-2.5 1-4.8 2.3-6.9 3.8-8.2 6.3-33.6 26.4-33.6 26.4-2.9 2.3-7.7 1.3-9.3-2.2l-10.3-22.6c-.8-1.7-.7-3.6.2-5.3.9-1.7 2.4-2.8 4.3-3.2 0 0 31.8-6.1 41.9-8.2 2.6-.5 5-1.4 7.3-2.7l75.2-38.4 34-17.3 13.1-6.7c.1.4.3.8.4 1.2.5 1.5.9 3 1.4 4.5.8 2.6 1.8 5.1 3 7.6 1 2.2 2.2 4.4 3.4 6.5.6 1 1.2 1.9 1.8 3 .2.7.5 1.3.9 1.8z"/>
    </symbol>
    <symbol id="icon-menu" viewBox="0 0 538.6 359">
      <path fill="#FFF" d="M500.1 0H51.3 38.5C17.2 0 0 17.2 0 38.5S17.2 77 38.5 77h461.6c21.2 0 38.5-17.2 38.5-38.5S521.3 0 500.1 0zM256.5 282.1H25.6C11.5 282.1 0 293.6 0 307.7c0 14.2 11.5 25.6 25.6 25.6h230.8c14.2 0 25.6-11.5 25.6-25.6.1-14.1-11.4-25.6-25.5-25.6zM25.6 205.2h282.1c14.2 0 25.6-11.5 25.6-25.6 0-14.2-11.5-25.6-25.6-25.6H25.6C11.5 153.9 0 165.4 0 179.5c0 14.2 11.5 25.7 25.6 25.7zM359 256.5c-28.3 0-51.3 23-51.3 51.3 0 28.3 23 51.3 51.3 51.3 28.3 0 51.3-23 51.3-51.3 0-28.4-22.9-51.3-51.3-51.3z"/>
    </symbol>
    <symbol id="icon-microphone" viewBox="0 0 588.9 592.9">
      <path fill="#FFF" stroke="#000" stroke-miterlimit="10" d="M573.9 438.1l-131-10.2-7.8 37.2L566 475.6zM542.6 555.7L505 536.8s-27.4 6.7-27.9 7.6-8.6 19.8-8.6 19.8 22.9 20 26.7 21.3 32.6-4 32.6-4l14.5-15.7.3-10.1zM402 542.5l-35.1-17.6-24.9 13.4-1.7 15.1 36.4 22.3 37.5-11.4zM108.6 423.7C114.4 421 400 222.4 400 222.4l61-34.5 40.9-15.7 37.9-41.1-.9-34.2-20.6-50.4L474 17.1l-61.1-2.7-42.3 29.8-22.3 53.2-23.9 34.3S58.3 359.8 58.6 363c.2 3.2 50 60.7 50 60.7z"/><path d="M420.2 199.6c-44.2-10.9-76.1-47.9-79.3-92.3-.3-4.2-.4-8.5-.1-12.7C343.6 43.7 385 3.1 437.2.1c10.6-.6 21.2.4 31.4 2.9 44.2 10.9 76.1 47.9 79.3 92.3 2 26.6-6.7 52.4-24.4 72.5-18.2 20.8-43.8 33.1-71.9 34.7-10.6.6-21.2-.4-31.4-2.9zm43.7-178c-8.4-2.1-17.1-2.9-25.8-2.4-42.4 2.4-76.1 35.2-78.4 76.4-.2 3.3-.1 6.8.1 10.3 2.6 36 28.7 66.2 64.8 75.1 8.4 2.1 17.1 2.9 25.8 2.4 23-1.3 43.8-11.3 58.6-28.2 14.3-16.2 21.2-37 19.7-58.5-2.6-36-28.7-66.2-64.8-75.1z"/><path d="M107.4 434l-61-71.3L343.5 92.5l12.8 14.1L72.9 364.4l37.8 44.1 322.6-222.7 10.9 15.7z"/><path d="M160.92 386.192l-53.348-67.068 14.947-11.89 53.349 67.069zM496.554 179.615L372.548 40.038l14.28-12.687 124.005 139.577zM51.1 527.4c-6.9-1.7-13.8-4.1-20.8-7.4-18.7-8.9-28.9-21.4-30.2-37.1-3.5-42.8 64.4-90.9 72.2-96.3l10.9 15.7c-25.8 17.8-65.9 55-64 79 .2 3.2 1 12.8 19.3 21.4 49.3 23.3 99-5.2 142.8-30.4 17.3-9.9 33.7-19.4 48.2-24.1 53.5-17.6 103 .9 118 28.2l-16.7 9.3c-9.7-17.5-49.2-34.4-95.3-19.3-12.7 4.2-28.2 13.1-44.7 22.6-40.1 22.9-88.8 50.9-139.7 38.4z"/><g><path d="M366.6 581.7c-26.5-6.5-43.8-25.4-39.5-43s28.4-26.3 54.9-19.8 43.8 25.4 39.5 43c-4.3 17.6-28.4 26.3-54.9 19.8zm10.8-44.2c-17.2-4.2-30.5.7-31.8 5.8s8.3 15.6 25.5 19.8c17.2 4.2 30.5-.7 31.8-5.8s-8.3-15.6-25.5-19.8zM498.8 590.7c-26.5-6.5-43.8-25.4-39.5-43 4.3-17.6 28.4-26.3 54.9-19.8s43.8 25.4 39.5 43-28.4 26.3-54.9 19.8zm10.8-44.1c-17.2-4.2-30.5.7-31.8 5.8-1.3 5.1 8.3 15.6 25.5 19.8 17.2 4.2 30.5-.7 31.8-5.8 1.3-5.1-8.3-15.6-25.5-19.8z"/><path d="M421.9 558.6l-18.6-4.5 33.9-138.2 151.7 11.6L553.7 571l-18.6-4.6L565 444.8l-113.1-8.6z"/><path d="M434.645 473.188l1.449-19.045 132.415 10.072-1.449 19.044z"/></g>
    </symbol>
    <symbol id="icon-move-handle" viewBox="0 0 550.8 550.8">
      <path fill="#4C4C4C" d="M440.6 378.2l110.2-102.8-110.2-102.8v66.1H311.5V110.2h66.1L275.4 0 172.6 110.2h66.1v129.1H110.2v-66.7L0 275.4l110.2 102.8v-66.7h129.1v129.1h-66.7l102.8 110.2 102.8-110.2h-66.7V311.5h129.1v66.7z"/>
    </symbol>
    <symbol id="icon-settings" viewBox="0 0 550.8 551.3">
      <path d="M257 24.5v142.1c0 23.7 36.7 23.7 36.7 0V24.5C293.8.8 257 .8 257 24.5zM187.8 342.2C153.8 376.1 119.9 410 86 444c-16.8 16.8 9.2 42.7 26 26 33.9-33.9 67.9-67.8 101.8-101.8 16.7-16.8-9.3-42.8-26-26zM272.7 318.4l133.4 133.4c27.2 27.2 69.4-15 42.2-42.2-44.5-44.5-89-88.9-133.4-133.4-27.2-27.3-69.4 15-42.2 42.2z"/><path fill="#010202" d="M494 233c-9.4-1.3-19.4-9.8-22.4-18.8l-14-34c-4.4-8.4-3.4-21.5 2.3-29l22.7-30.3c5.6-7.6 5.2-19.6-1.1-26.7l-24.9-24.9c-7.1-6.2-19.1-6.7-26.7-1L399.7 91c-7.6 5.7-20.6 6.7-29 2.3l-34-14c-9.1-2.9-17.5-12.9-18.8-22.3l-5.4-37.4C311.2 10.2 302.4 1.7 293 .7c0 0-5.8-.6-17.7-.6-11.8 0-17.7.6-17.7.6-9.4 1-18.2 9.5-19.5 18.9L232.8 57c-1.4 9.4-9.8 19.4-18.8 22.3l-34 14c-8.4 4.4-21.4 3.4-29-2.3l-30.3-22.7c-7.6-5.7-19.6-5.2-26.7 1l-24.9 25c-6.3 7.1-6.8 19.1-1.1 26.7l22.7 30.3c5.7 7.6 6.7 20.7 2.3 29.1l-14 34c-2.9 9-12.9 17.5-22.3 18.8l-37.4 5.3C9.9 239.9 1.5 248.7.5 258.1c0 0-.6 5.9-.6 17.7 0 11.9.6 17.7.6 17.7 1 9.5 9.5 18.2 18.8 19.6l37.4 5.3c9.4 1.4 19.4 9.8 22.3 18.8l14 34c4.4 8.4 3.4 21.5-2.3 29L68 430.5c-5.7 7.6-7.1 17.9-3 22.8 4 5 15.5 17.3 15.6 17.3 0 0 3.9 3.6 8.6 7.9 4.7 4.3 23.9 10.3 31.5 4.7l30.2-22.7c7.6-5.7 20.6-6.7 29-2.3l34 14c9 2.9 17.5 12.9 18.8 22.3l5.4 37.4c1.3 9.4 10.1 17.9 19.6 18.9 0 0 5.8.6 17.6.6s17.7-.6 17.7-.6c9.4-1 18.2-9.5 19.5-18.9l5.4-37.4c1.3-9.4 9.8-19.4 18.8-22.3l34-14c8.4-4.4 21.5-3.4 29 2.3l30.2 22.7c7.6 5.7 19.6 5.2 26.7-1.1l24.8-24.9c6.3-7.2 6.7-19.2 1.1-26.8l-22.7-30.3c-5.7-7.5-6.7-20.6-2.3-29l14-34c2.9-9 12.9-17.5 22.3-18.8l37.4-5.3c9.4-1.4 17.9-10.1 18.9-19.6 0 0 .6-5.8.6-17.7 0-11.8-.6-17.7-.6-17.7-1-9.4-9.5-18.2-18.9-19.6L494 233zM275.4 433.9c-87.4 0-158.1-70.9-158.1-158.3s70.8-158.3 158.1-158.3c87.4 0 158.1 70.9 158.1 158.3s-70.8 158.3-158.1 158.3z"/><circle fill="none" stroke="#000" stroke-width="6" stroke-miterlimit="10" cx="275.4" cy="275.6" r="109.1"/>
    </symbol>
    <symbol id="icon-synth" viewBox="0 0 456 204.8">
      <path fill="#FFF" stroke="#000" stroke-miterlimit="10" d="M19.5 198.6c139.8-.7 279.6-1.3 419.3-2 .9-44.2 1.8-88.4 2.7-132.7 2.4-2.2 4.9-4.4 7.3-6.7l-2.7-32.7-314-8.7C94.6 16 57 16 19.5 16c-1.3 17.8-2.7 35.6-4 53.3 1.3 43.1 2.6 86.2 4 129.3z"/><path d="M445.5 204.8H10.6V58.6h434.9v146.2zM22.8 192.7h410.6V70.8H22.8v121.9z"/><path d="M57 75.6h15.3V149H57zM88.8 75.6h15.3V149H88.8zM198.4 75.6h15.3V149h-15.3zM133.7 75.6h15.4V149h-15.4zM165.5 75.6h15.3V149h-15.3zM243.6 75.6H259V149h-15.4zM275.4 75.6h15.3V149h-15.3zM385 75.6h15.3V149H385zM320.3 75.6h15.3V149h-15.3zM352.1 75.6h15.3V149h-15.3zM0 0v75.6h456V0H0zm56.3 54.3c-8.8 0-16-7.2-16-16s7.2-16 16-16 16 7.2 16 16c.1 8.9-7.1 16-16 16zm47.8-.5c-8.8 0-16-7.2-16-16s7.2-16 16-16 16 7.2 16 16c.1 8.9-7.1 16-16 16zm335.3.5h-241V38.1h241v16.2z"/><path d="M59.679 39.31l-5.266-3.078 7.673-13.121 5.266 3.08zM117.262 47.394l-14.456-6.858 2.614-5.511 14.456 6.858z"/>
    </symbol>
    <symbol id="icon-tamburine" viewBox="0 0 531.2 373.9">
      <path fill="#FFF" stroke="#000" stroke-miterlimit="10" d="M333 277.3l34 15.3 2 20.7 16 19.3 22 8 16-3.3 14 20 19.4 11.3 26.6-3.3 24-26 6-60.7-4-35.3 18-26-2-23.3-22.6-19.4-12.7-3.3-29.3-49.3-16-18 2-23.4-15.4-20-24-8-16 6-42.6-15.3L309 30.6 296.4 24 279 7.3l-18-2.7-20 12L228.4 34l-42.7 6-43.3 19.3-24-4.7L99 62l-9.3 13.3-4.7 16-.6 13.3-18 27.4L39 173.3l-18 7.3-17.3 20.7L2.4 222l12 14 4 6.6 2 49.4 9.3 52 10 17.3 25.3 8L91 358l16.7-24 16.7 6.6 22.6-7.3 14-18 4-18 7.4-12.7 17.3-4.6-16-34-36 19.3-8.7-4-19.3 1.3-16.7 10-8 15.4.7 21.3-11.3 15.3-10.7.7-5.3-12-2-62.7 21.3-10 10.7-28-4.7-12-6-16.6 5.3-16.7 14.7-22.7 16-14.6 16 5.3L153 128l8.7-26.7 1.3-10.7 17.4-11.3L219 68l20.7-7.4-2 14 12 6.7 22 7.3 17.3-8 13.4-14 22 5.4 37.3 12.6 5.3 8.7 5.4 20 14.6 18 37.4 2.7 14 17.3 17.3 37.3-8 15.4 2.7 23.3 17.3 16.7 8.7 12 .6 34-4.6 32-14 6.6-14.7-25.3-1.3-20-16.7-16.7-20.7-5.3-12.6 2-42-16.7z"/><path d="M531.2 211.8c0-22.6-16.5-41-37.9-45.3-10.4-22.6-24.5-43.5-41-61.8.6-3.1 1.2-6.1 1.2-9.8 0-25.1-20.8-45.9-45.9-45.9-6.7 0-13.5 1.8-19.6 4.3-25.1-14.1-52.6-23.9-81.4-28.2C299.3 10.4 284 0 266.2 0s-33 10.4-40.4 25.1c-28.8 4.9-56.3 14.1-82 28.2-6.1-3.1-12.2-4.3-19.6-4.3-25.1 0-45.9 20.8-45.9 45.9 0 3.1.6 6.7 1.2 9.8-17.1 18.4-30.6 39.2-41 61.8C15.9 170.1 0 189.1 0 211.8c0 13.5 6.1 25.7 15.3 34.3-1.2 9.2-1.8 19-1.8 28.2 0 22.6 3.1 45.3 9.2 67.3 5.5 19.6 22.6 32.4 42.8 32.4 14.1 0 26.3-6.1 34.9-17.7 3.1-4.3 6.7-8.6 10.4-12.9 4.3 1.2 8.6 1.8 12.9 1.8 25.1 0 45.9-20.8 45.9-45.9v-3.7c4.3-2.4 8.6-4.3 12.9-6.1 3.7 6.7 12.2 9.8 19.6 7.3 23.9-8 74.7-20.2 127.9-.6 7.3 2.4 15.9 0 19.6-6.7 4.3 1.8 8.6 4.3 12.2 6.1v3.7c0 25.1 20.8 45.9 45.9 45.9 4.3 0 8.6-.6 12.9-1.8 3.7 4.3 7.3 8.6 10.4 12.9 8.6 11 20.8 17.7 34.9 17.7 20.2 0 37.3-12.9 42.8-32.4 7.3-26.9 10.4-55.1 8.6-83.2 0-4.3-.6-8.6-1.2-12.9 9-8 15.1-20.3 15.1-33.7zm-123.6-150c17.7 0 32.4 14.1 33.7 31.8-12.2-11.6-25.1-22-39.2-31.2 1.8-.6 3.7-.6 5.5-.6zm-142-48.9c9.8 0 18.4 4.3 24.5 10.4-2.4 0-4.3-.6-6.7-.6-6.1-.6-11.6-.6-17.7-.6-8 0-16.5.6-24.5 1.2 6-6.8 14.6-10.4 24.4-10.4zm-142 48.9c1.8 0 3.7 0 5.5.6-14 9.2-26.9 19.6-39.1 31.2 1.2-18.3 15.9-31.8 33.6-31.8zm-111.4 150c0-13.5 8-24.5 19-30-6.1 15.3-10.4 31.8-13.5 48.3-3.6-5.5-5.5-11.6-5.5-18.3zm111.4 121.1h-3.1c11-11.6 23.3-21.4 36.7-29.4-1.8 16.6-16.4 29.4-33.6 29.4zM90 296.8c1.2-17.1 15.9-31.2 33.7-31.2 1.2 0 3.1 0 4.3.6-13.6 8.6-26.4 19-38 30.6zm52-39.1c-5.5-2.4-11.6-4.3-18.4-4.3-25.1 0-45.9 20.8-45.9 45.9 0 3.1.6 6.1 1.2 9.2-3.1 3.1-6.1 6.7-8.6 9.8-.6.6-1.2 1.2-2.4 1.2s-2.4-.6-2.4-2.4c-3.1-14.1-4.9-28.8-4.9-43.5 0-6.7.6-12.9 1.2-19.6 17.7-6.7 30-23.3 30-42.8 0-10.4-3.7-20.8-9.8-28.2 8-15.9 17.7-30.6 29.4-44.1 4.3 1.2 8 1.8 12.2 1.8 25.1 0 45.9-20.8 45.9-45.9v-2.4c18.4-9.8 37.9-16.5 58.8-20.2 8.6 11.6 22 19.6 37.3 19.6s29.4-8 37.3-19.6c20.8 3.7 40.4 11 58.8 20.2v2.4c0 25.1 20.8 45.9 45.9 45.9 4.3 0 8.6-.6 12.9-1.8 11.6 13.5 21.4 28.2 29.4 44.1-6.1 8-9.8 17.7-9.8 28.2 0 19.6 12.9 36.7 30 42.8 0 2.4.6 4.3.6 6.7 1.2 19-.6 37.9-4.3 56.3 0 1.2-1.2 2.4-2.4 2.4-.6 0-1.8-.6-2.4-1.2-3.1-3.7-5.5-6.7-8.6-9.8.6-3.1 1.2-6.1 1.2-9.2 0-25.1-20.8-45.9-45.9-45.9-6.7 0-12.9 1.2-18.4 4.3-6.1-3.7-12.9-6.7-19.6-9.8 3.1-8.6-.6-17.7-9.2-21.4-5.5-2.4-11.6-4.3-17.1-6.1-3.7-1.2-7.3-.6-10.4.6-1.8.6-3.7.6-5.5.6-4.9 0-9.2-1.8-12.2-4.9-2.4-2.4-6.1-4.3-9.8-4.9-6.7-1.2-13.5-1.8-20.2-1.8-3.7 0-8 .6-11 2.4-2.4 1.2-5.5 2.4-8.6 2.4-2.4 0-5.5-.6-7.3-1.8-4.3-1.8-8-3.1-11.6-3.1-6.7.6-13.5 1.2-20.2 2.4-4.3.6-9.2 1.8-12.2 4.9-3.1 2.4-6.7 4.3-11 4.3-1.2 0-3.1 0-4.3-.6-4.3-1.2-9.2-.6-13.5.6-5.5 1.8-10.4 3.1-14.7 4.9-8.6 3.1-12.9 12.9-9.8 20.8-6.9 3.2-13 6.9-19.7 10.6zm-66.1-61.2c2.4 4.3 3.7 9.8 3.7 15.3 0 12.2-6.7 22.6-15.9 28.8 2.4-15.4 6.7-30.1 12.2-44.1zm45.3-68c11-11 22.6-20.2 36.1-28.2-2.4 15.9-16.5 28.8-33 28.8-1.3 0-2.5-.6-3.1-.6zm121.2-58.1c8-.6 15.3-1.2 23.3-1.2 4.9 0 9.8 0 14.7.6 3.1 0 6.1.6 9.2.6-6.1 6.1-14.1 9.8-23.3 9.8-9.9 0-17.8-3.7-23.9-9.8zm131.5 29.4c12.9 8 25.1 17.7 36.1 28.8h-3.1c-16.4.5-30.5-12.3-33-28.8zm81.4 96.7c5.5 14.1 9.8 28.8 12.2 43.5-9.8-6.1-15.9-16.5-15.9-28.8.1-5 1.3-10.5 3.7-14.7zm-52.6 69.7c1.2 0 3.1-.6 4.3-.6 17.7 0 32.4 13.5 33.7 31.2-11.7-11.6-24.5-22-38-30.6zm4.9 66.7c-17.1 0-31.2-12.9-33.7-30 12.9 8.6 25.1 18.4 36.7 29.4-1.2.6-2.4.6-3 .6zm88.7 5.5c-4.3 14.7-17.7 23.3-31.2 23.3-9.2 0-19-4.3-25.1-12.9-22.6-30-52-54.5-85.7-69.8 3.1-6.7 6.7-13.5 9.8-20.2 33 15.3 63 37.9 86.9 67.9 3.1 3.7 7.3 5.5 11.6 5.5 7.3 0 13.5-4.9 14.7-11.6 4.3-19.6 5.5-39.8 4.3-59.4-6.7-108.3-93-195.8-201.3-203.2-4.9-1.2-9.8-1.2-14.7-1.2-120 0-217.3 97.3-217.3 217.3 0 15.9 1.8 31.2 4.9 45.9 1.2 6.7 7.3 11.6 14.7 11.6 4.3 0 8.6-1.8 11.6-5.5 23.9-29.4 53.9-52.6 86.9-67.9l9.8 20.2c-33.7 15.9-63.6 39.8-85.7 70.4-6.7 8.6-15.9 12.9-25.1 12.9-13.5 0-26.9-8.6-31.2-23.9-5.5-20.2-8.6-41.6-8.6-63.6.1-132.2 107.2-239.9 240-239.9 5.5 0 11 0 17.1.6 118.7 8 214.8 105.3 222.2 224 1.2 27.5-1.2 54.4-8.6 79.5zm17.2-108.9c-3.1-16.5-7.3-33-13.5-48.3 11 5.5 19 17.1 19 30.6 0 6.7-1.9 12.8-5.5 17.7z"/>
    </symbol>
    <symbol id="icon-trashcan" viewBox="0 0 363.6 550.8">
      <g fill="#FFF"><path d="M69.6 234.7c-2.8.3-4.8 2.7-4.6 5.5l21.7 241.1c.2 2.6 2.4 4.6 5 4.6h.5c2.8-.3 4.8-2.7 4.6-5.5L75.1 239.3c-.3-2.8-2.8-4.9-5.5-4.6zM132.9 244.7c-2.8.1-4.9 2.5-4.8 5.2l10.1 241.7c.1 2.7 2.3 4.8 5 4.8h.2c2.8-.1 4.9-2.5 4.8-5.2l-10.1-241.7c0-2.7-2.4-4.9-5.2-4.8zM241.3 485.8h.5c2.6 0 4.8-2 5-4.6l21.8-241.1c.2-2.8-1.8-5.2-4.6-5.5-2.9-.3-5.2 1.8-5.5 4.6l-21.8 241.1c-.2 2.8 1.9 5.3 4.6 5.5zM190.2 496.5h.2c2.7 0 4.9-2.1 5-4.8L205.5 250c.1-2.8-2-5.1-4.8-5.2-2.8 0-5.1 2-5.2 4.8l-10.1 241.7c-.2 2.8 2 5.1 4.8 5.2zM55.4 175.7c3.4 0 6.5-1.5 8.6-3.8 1.9-2.1 3.1-4.9 3.1-7.9 0-6.4-5.2-11.7-11.7-11.7-6.4 0-11.7 5.2-11.7 11.7 0 6.5 5.3 11.7 11.7 11.7z"/><circle cx="127.8" cy="176.7" r="11.7"/><path d="M282.7 68.5c-1.7-14.1-7.7-24.7-14.1-32.2-13.1-15.3-31.2-22.7-41-26.6-8.3-3.4-23.9-9.7-41.3-9.7-11.8 0-26.2 3-39.3 13.6C94.2-.5 40.3-5.8 28.9 22.5L14.5 57.9c-1.6 4-1.2 8.6 1.2 12.3l5.8 8.8-11.2 90-3.9 7.6h-.6c0 .3.1.7.1 1l-4.5 8.7c-1.2 2.3-1.7 5-1.4 7.5l33.5 295.8c.9 40.1 67.4 61 133.1 61 65.7 0 132.3-20.9 133.2-61l32.5-287.4 6.9-2.3c3.6-1.2 6.6-4 8-7.5l5.3-13c.1-.2.2-.4.3-.7l8.8-21.8c11.5-28.2-31-61.9-78.9-88.4zM140.9 56.4c9.9-24.6 24.8-36.5 45.4-36.5 13.5 0 26.2 5.1 33.8 8.2 8.2 3.3 23.4 9.5 33.3 21.1 8.9 10.4 11.8 23 8.9 38.3-1 5.1-2.6 10.4-4.9 16.1-.7 1.7-1.2 1.7-2.1 1.7-1.5 0-3.6-.6-6.3-1.6-3.9-1.5-5.4-2.8-6.1-3.6-.3-.4-.6-.8 0-2.3 1.5-3.7 2.6-7.1 3.4-10.3.2-.6.3-1.2.4-1.8.2-.8.3-1.6.5-2.4l.3-2.4c2.1-19.3-10.7-28.9-33.3-38.1-12.7-5.1-20.8-7.2-28-7.2-10.1 0-16.9 4.6-22 10.9-3.9 4.8-6.8 10.6-8.9 16-.7 1.7-1.2 1.7-2.1 1.7-1.5 0-3.6-.6-6.3-1.6-7.2-3.2-6.6-4.8-6-6.2zm-5.6-18.5c-2.4 4-4.6 8.5-6.7 13.6-2.3 5.7-3.6 16.3 13.4 23.1 4.4 1.8 8 2.6 11.3 2.6 6.7 0 11.8-3.5 14.4-10 3.8-9.3 7.3-13.9 10.7-16.3 9.1 3.2 18.5 6.7 28.4 10.6 9.8 4 19 8 27.7 12 1.1 4.9-.3 10.9-3.7 19.1-2.3 5.6-1.6 11.2 1.9 15.5 2.4 3 6.1 5.4 11.4 7.6 4.4 1.8 8 2.6 11.3 2.6 6.7 0 11.8-3.5 14.4-10 2-5 3.4-9.7 4.6-14.4 40.1 23 61.2 43.4 62.7 51.8-23.5 5.2-79.1-2.4-151.7-31.8-72.4-29-117.6-62.1-131-82.2 7.4-5.1 36.6-5 80.9 6.2zm-73.8 97.8c15.6 0 28.3 12.7 28.3 28.3s-12.7 28.3-28.3 28.3c-15.6 0-28.3-12.7-28.3-28.3.1-15.6 12.7-28.3 28.3-28.3zm212.1 351.8c-.1.5-.1 1-.1 1.5 0 14.1-42.6 35.4-106.7 35.4S60.1 503.1 60.1 489c0-.5 0-1-.1-1.5L27.5 201.3c28.4 14.1 82.5 23 144.5 23 53.6 0 102.9-7 133.4-18.3l-31.8 281.5zm-168-310.8c0-15.6 12.7-28.3 28.3-28.3 15.6 0 28.3 12.7 28.3 28.3 0 15.6-12.7 28.3-28.3 28.3-15.6 0-28.3-12.7-28.3-28.3zm222.5-7.2c-.1.2-.2.4-.2.6l-2.6 6.3c-19.4 5.6-73.4.7-152.5-31.2-65.2-26.3-109.9-56.4-126.5-76.8l-4.6-7 7.6-18.8c21.7 27 76.5 58.8 132.2 81.3 49.2 19.9 103.1 34.1 138.7 34.1 4.7 0 9-.3 12.9-.8l-5 12.3z"/></g>
    </symbol>
    <symbol id="icon-upload" viewBox="0 0 351.3 412">
      <g fill="#FFF"><path d="M185.3 173.5c-2.5-2.5-5.9-4-9.7-4-3.8 0-7.2 1.5-9.7 4l-64.8 64.8c-5.4 5.4-5.4 14 0 19.4 5.4 5.4 14 5.4 19.4 0l41.4-41.4v182c0 7.6 6.1 13.7 13.7 13.7s13.7-6.1 13.7-13.7v-182l41.4 41.4c2.7 2.7 6.2 4 9.7 4 3.5 0 7-1.3 9.7-4 5.4-5.4 5.4-14 0-19.4l-64.8-64.8z"/><path d="M336.2 128.4c6.7-29.6 1.3-58.6-15.4-80.6C295.5 14.6 250 4.5 207.4 21.7 192.3 7.8 172.4 0 151.7 0 107.9 0 72 34.2 69.2 77.3 30 83.8 0 117.9 0 158.9c0 43.4 33.9 79.6 77.2 82.4h.9c7.2 0 13.2-5.6 13.7-12.8.5-7.5-5.2-14.1-12.8-14.6-28.9-1.9-51.6-26.1-51.6-55.1 0-30.5 24.8-55.3 54.5-55.3h16.5l-1.7-15.2c-.2-1.9-.3-3.8-.3-5.7 0-30.5 24.8-55.3 55.3-55.3 16.3 0 31.6 7.1 42.1 19.6l7 8.3 9.7-4.9C243.6 33.6 280 39.4 299 64.4c12.8 16.8 16.1 40.1 8.9 63.9l-2.4 8.1 6.2 5.8c7.8 7.3 12.1 17.2 12.1 27.8 0 21-17.1 38-38 38-6.5 0-13-1.7-18.7-5-6.6-3.7-14.9-1.5-18.7 5.1-3.7 6.6-1.4 14.9 5.1 18.7 9.8 5.6 21 8.6 32.3 8.6 36.1 0 65.4-29.3 65.4-65.4.1-15.1-5.3-29.9-15-41.6z"/></g>
    </symbol>
    <symbol id="pianoroll" viewBox="0 0 132.5 1403.7">
      <path fill="#FFF" stroke="#000" stroke-miterlimit="10" d="M.5 56.4H132v19H.5M.5 1157.4H132v19H.5M.5 1136.4H132v20H.5M.5 1116.4H132v19H.5M.5 1096.4H132v19H.5M.5 1076.4H132v19H.5M.5 1056.4H132v19H.5M.5 995.4H132v19H.5M.5 975.4H132v19H.5M.5 955.4H132v19H.5M.5 935.4H132v19H.5M.5 915.4H132v19H.5M.5 894.4H132v20H.5M.5 874.4H132v19H.5M.5 854.4H132v19H.5M.5 834.4H132v19H.5M.5 814.4H132v19H.5M.5 794.4H132v19H.5M.5 733.4H132v19H.5M.5 713.4H132v19H.5M.5 693.4H132v19H.5M.5 673.4H132v19H.5M.5 653.4H132v19H.5M.5 633.4H132v19H.5M.5 613.4H132v19H.5M.5 593.4H132v19H.5M.5 573.4H132v19H.5M.5 553.4H132v19H.5M.5 533.4H132v19H.5M.5 472.4H132v19H.5M.5 452.4H132v19H.5M.5 432.4H132v19H.5M.5 412.4H132v19H.5M.5 391.4H132v20H.5M.5 371.4H132v19H.5M.5 351.4H132v19H.5M.5 331.4H132v19H.5M.5 311.4H132v19H.5M.5 291.4H132v19H.5M.5 270.4H132v20H.5M.5 210.4H132v19H.5M.5 190.4H132v19H.5M.5 170.4H132v19H.5M.5 129.4H132v19H.5M.5 109.4H132v19H.5M.5 89.4H132v19H.5M.5 250.4H132v19H.5M.5 230.4H132v19H.5M.5 512.4H132v20H.5M.5 492.4H132v19H.5M.5 773.4H132v20H.5M.5 753.4H132v19H.5M.5 1036.4H132v19H.5M.5 1015.4H132v20H.5M.5 149.4H132v20H.5"/><path d="M.5 1132.9h84v12H.5zM.5 1109.9h84v12H.5zM.5 1087.9h84v12H.5zM.5 1052.9h84v12H.5zM.5 1027.9h84v12H.5zM.5 991.9h84v12H.5zM.5 968.9h84v12H.5zM.5 946.9h84v12H.5zM.5 911.9h84v12H.5zM.5 886.9h84v12H.5zM.5 850.9h84v12H.5zM.5 827.9h84v12H.5zM.5 805.9h84v12H.5zM.5 770.9h84v12H.5zM.5 745.9h84v12H.5zM.5 709.9h84v12H.5zM.5 686.9h84v12H.5zM.5 664.9h84v12H.5zM.5 629.9h84v12H.5zM.5 604.9h84v12H.5zM.5 568.9h84v12H.5zM.5 545.9h84v12H.5zM.5 523.9h84v12H.5zM.5 488.9h84v12H.5zM.5 463.9h84v12H.5zM.5 427.9h84v12H.5zM.5 404.9h84v12H.5zM.5 382.9h84v12H.5zM.5 347.9h84v12H.5zM.5 322.9h84v12H.5zM.5 286.9h84v12H.5zM.5 263.9h84v12H.5zM.5 241.9h84v12H.5zM.5 206.9h84v12H.5zM.5 181.9h84v12H.5zM.5 145.9h84v12H.5zM.5 122.9h84v12H.5zM.5 100.9h84v12H.5z"/><path opacity=".24" fill="#333" d="M.5 69.4h39.3V1176H.5z"/><path fill="#CCC" stroke="#000" stroke-miterlimit="10" d="M.5 1177.2H132v226H.5zM.5.5H132v88.7H.5z"/>
    </symbol></svg>