<!-- Generator: Adobe Illustrator 18.1.0, SVG Export Plug-In  -->
<svg version="1.1"
	 xmlns="http://www.w3.org/2000/svg" xmlns:xlink="http://www.w3.org/1999/xlink" xmlns:a="http://ns.adobe.com/AdobeSVGViewerExtensions/3.0/"
	 x="0px" y="0px" width="550.8px" height="551.3px" viewBox="0 0 550.8 551.3"
	 overflow="scroll" enable-background="new 0 0 550.8 551.3" xml:space="preserve">
<defs>
</defs>
<g>
	<g>
		<path d="M257,24.5c0,47.4,0,94.7,0,142.1c0,23.7,36.7,23.7,36.7,0c0-47.4,0-94.7,0-142.1C293.8,0.8,257,0.8,257,24.5L257,24.5z"/>
	</g>
</g>
<g>
	<g>
		<path d="M187.8,342.2C153.8,376.1,119.9,410,86,444c-16.8,16.8,9.2,42.7,26,26c33.9-33.9,67.9-67.8,101.8-101.8
			C230.5,351.4,204.5,325.4,187.8,342.2L187.8,342.2z"/>
	</g>
</g>
<g>
	<g>
		<path d="M272.7,318.4c44.5,44.5,89,89,133.4,133.4c27.2,27.2,69.4-15,42.2-42.2c-44.5-44.5-89-88.9-133.4-133.4
			C287.7,248.9,245.5,291.2,272.7,318.4L272.7,318.4z"/>
	</g>
</g>
<path fill="#010202" d="M494,233c-9.4-1.3-19.4-9.8-22.4-18.8l-14-34c-4.4-8.4-3.4-21.5,2.3-29l22.7-30.3c5.6-7.6,5.2-19.6-1.1-26.7
	l-24.9-24.9c-7.1-6.2-19.1-6.7-26.7-1l-30.2,22.7c-7.6,5.7-20.6,6.7-29,2.3l-34-14c-9.1-2.9-17.5-12.9-18.8-22.3l-5.4-37.4
	c-1.3-9.4-10.1-17.9-19.5-18.9c0,0-5.8-0.6-17.7-0.6c-11.8,0-17.7,0.6-17.7,0.6c-9.4,1-18.2,9.5-19.5,18.9l-5.3,37.4
	c-1.4,9.4-9.8,19.4-18.8,22.3l-34,14c-8.4,4.4-21.4,3.4-29-2.3l-30.3-22.7c-7.6-5.7-19.6-5.2-26.7,1l-24.9,25
	c-6.3,7.1-6.8,19.1-1.1,26.7l22.7,30.3c5.7,7.6,6.7,20.7,2.3,29.1l-14,34c-2.9,9-12.9,17.5-22.3,18.8l-37.4,5.3
	c-9.4,1.4-17.8,10.2-18.8,19.6c0,0-0.6,5.9-0.6,17.7c0,11.9,0.6,17.7,0.6,17.7c1,9.5,9.5,18.2,18.8,19.6l37.4,5.3
	c9.4,1.4,19.4,9.8,22.3,18.8l14,34c4.4,8.4,3.4,21.5-2.3,29l-22.7,30.3c-5.7,7.6-7.1,17.9-3,22.8c4,5,15.5,17.3,15.6,17.3
	c0,0,3.9,3.6,8.6,7.9c4.7,4.3,23.9,10.3,31.5,4.7l30.2-22.7c7.6-5.7,20.6-6.7,29-2.3l34,14c9,2.9,17.5,12.9,18.8,22.3l5.4,37.4
	c1.3,9.4,10.1,17.9,19.6,18.9c0,0,5.8,0.6,17.6,0.6c11.8,0,17.7-0.6,17.7-0.6c9.4-1,18.2-9.5,19.5-18.9l5.4-37.4
	c1.3-9.4,9.8-19.4,18.8-22.3l34-14c8.4-4.4,21.5-3.4,29,2.3l30.2,22.7c7.6,5.7,19.6,5.2,26.7-1.1l24.8-24.9
	c6.3-7.2,6.7-19.2,1.1-26.8l-22.7-30.3c-5.7-7.5-6.7-20.6-2.3-29l14-34c2.9-9,12.9-17.5,22.3-18.8l37.4-5.3
	c9.4-1.4,17.9-10.1,18.9-19.6c0,0,0.6-5.8,0.6-17.7c0-11.8-0.6-17.7-0.6-17.7c-1-9.4-9.5-18.2-18.9-19.6L494,233z M275.4,433.9
	c-87.4,0-158.1-70.9-158.1-158.3c0-87.4,70.8-158.3,158.1-158.3c87.4,0,158.1,70.9,158.1,158.3C433.5,363,362.7,433.9,275.4,433.9z"
	/>
<circle fill="none" stroke="#000000" stroke-width="6" stroke-miterlimit="10" cx="275.4" cy="275.6" r="109.1"/>
</svg>
