<!-- Generator: Adobe Illustrator 18.1.0, SVG Export Plug-In  -->
<svg version="1.1"
	 xmlns="http://www.w3.org/2000/svg" xmlns:xlink="http://www.w3.org/1999/xlink" xmlns:a="http://ns.adobe.com/AdobeSVGViewerExtensions/3.0/"
	 x="0px" y="0px" width="363.6px" height="550.8px" viewBox="0 0 363.6 550.8"
	 overflow="scroll" enable-background="new 0 0 363.6 550.8" xml:space="preserve">
<defs>
</defs>
<g>
	<g>
		<path fill="#FFFFFF" stroke="#231F20" stroke-width="1.7301" stroke-miterlimit="10" d="M180.9,125.2"/>
	</g>
	<g>
		<path fill="#FFFFFF" stroke="#231F20" stroke-width="1.7301" stroke-miterlimit="10" d="M180.9,125.2"/>
	</g>
	<g>
		<path fill="#FFFFFF" d="M69.6,234.7c-2.8,0.3-4.8,2.7-4.6,5.5l21.7,241.1c0.2,2.6,2.4,4.6,5,4.6c0.1,0,0.3,0,0.5,0
			c2.8-0.3,4.8-2.7,4.6-5.5L75.1,239.3C74.8,236.5,72.3,234.4,69.6,234.7z"/>
		<path fill="#FFFFFF" d="M132.9,244.7c-2.8,0.1-4.9,2.5-4.8,5.2l10.1,241.7c0.1,2.7,2.3,4.8,5,4.8c0.1,0,0.1,0,0.2,0
			c2.8-0.1,4.9-2.5,4.8-5.2l-10.1-241.7C138.1,246.8,135.7,244.6,132.9,244.7z"/>
		<path fill="#FFFFFF" d="M241.3,485.8c0.2,0,0.3,0,0.5,0c2.6,0,4.8-2,5-4.6l21.8-241.1c0.2-2.8-1.8-5.2-4.6-5.5
			c-2.9-0.3-5.2,1.8-5.5,4.6l-21.8,241.1C236.5,483.1,238.6,485.6,241.3,485.8z"/>
		<path fill="#FFFFFF" d="M190.2,496.5c0.1,0,0.1,0,0.2,0c2.7,0,4.9-2.1,5-4.8L205.5,250c0.1-2.8-2-5.1-4.8-5.2
			c-2.8,0-5.1,2-5.2,4.8l-10.1,241.7C185.2,494.1,187.4,496.4,190.2,496.5z"/>
		<path fill="#FFFFFF" d="M55.4,175.7c3.4,0,6.5-1.5,8.6-3.8c1.9-2.1,3.1-4.9,3.1-7.9c0-6.4-5.2-11.7-11.7-11.7
			c-6.4,0-11.7,5.2-11.7,11.7C43.7,170.5,49,175.7,55.4,175.7z"/>
		<circle fill="#FFFFFF" cx="127.8" cy="176.7" r="11.7"/>
		<path fill="#FFFFFF" d="M282.7,68.5c-1.7-14.1-7.7-24.7-14.1-32.2c-13.1-15.3-31.2-22.7-41-26.6C219.3,6.3,203.7,0,186.3,0
			c-11.8,0-26.2,3-39.3,13.6C94.2-0.5,40.3-5.8,28.9,22.5L14.5,57.9c-1.6,4-1.2,8.6,1.2,12.3l5.8,8.8l-11.2,90l-3.9,7.6H5.8
			c0,0.3,0.1,0.7,0.1,1l-4.5,8.7c-1.2,2.3-1.7,5-1.4,7.5l33.5,295.8c0.9,40.1,67.4,61,133.1,61c65.7,0,132.3-20.9,133.2-61
			l32.5-287.4l6.9-2.3c3.6-1.2,6.6-4,8-7.5l5.3-13c0.1-0.2,0.2-0.4,0.3-0.7l8.8-21.8C373.1,128.7,330.6,95,282.7,68.5z M140.9,56.4
			c9.9-24.6,24.8-36.5,45.4-36.5c13.5,0,26.2,5.1,33.8,8.2c8.2,3.3,23.4,9.5,33.3,21.1c8.9,10.4,11.8,23,8.9,38.3c0,0,0,0,0,0
			c-1,5.1-2.6,10.4-4.9,16.1c-0.7,1.7-1.2,1.7-2.1,1.7h0c0,0,0,0,0,0c-1.5,0-3.6-0.6-6.3-1.6c-3.9-1.5-5.4-2.8-6.1-3.6
			c-0.3-0.4-0.6-0.8,0-2.3c1.5-3.7,2.6-7.1,3.4-10.3c0.2-0.6,0.3-1.2,0.4-1.8c0.2-0.8,0.3-1.6,0.5-2.4c0.1-0.8,0.2-1.6,0.3-2.4
			c2.1-19.3-10.7-28.9-33.3-38.1c-12.7-5.1-20.8-7.2-28-7.2c-10.1,0-16.9,4.6-22,10.9c0,0,0,0,0,0c-3.9,4.8-6.8,10.6-8.9,16
			c-0.7,1.7-1.2,1.7-2.1,1.7c0,0,0,0,0,0c0,0,0,0,0,0c-1.5,0-3.6-0.6-6.3-1.6C139.7,59.4,140.3,57.8,140.9,56.4z M135.3,37.9
			c-2.4,4-4.6,8.5-6.7,13.6c-2.3,5.7-3.6,16.3,13.4,23.1c4.4,1.8,8,2.6,11.3,2.6c6.7,0,11.8-3.5,14.4-10c3.8-9.3,7.3-13.9,10.7-16.3
			c9.1,3.2,18.5,6.7,28.4,10.6c9.8,4,19,8,27.7,12c1.1,4.9-0.3,10.9-3.7,19.1c-2.3,5.6-1.6,11.2,1.9,15.5c2.4,3,6.1,5.4,11.4,7.6
			c4.4,1.8,8,2.6,11.3,2.6c6.7,0,11.8-3.5,14.4-10c2-5,3.4-9.7,4.6-14.4c40.1,23,61.2,43.4,62.7,51.8c-23.5,5.2-79.1-2.4-151.7-31.8
			C113,84.9,67.8,51.8,54.4,31.7C61.8,26.6,91,26.7,135.3,37.9z M61.5,135.7c15.6,0,28.3,12.7,28.3,28.3s-12.7,28.3-28.3,28.3
			c-15.6,0-28.3-12.7-28.3-28.3C33.3,148.4,45.9,135.7,61.5,135.7z M273.6,487.5c-0.1,0.5-0.1,1-0.1,1.5
			c0,14.1-42.6,35.4-106.7,35.4c-64.1,0-106.7-21.3-106.7-35.4c0-0.5,0-1-0.1-1.5L27.5,201.3c28.4,14.1,82.5,23,144.5,23
			c53.6,0,102.9-7,133.4-18.3L273.6,487.5z M105.6,176.7c0-15.6,12.7-28.3,28.3-28.3c15.6,0,28.3,12.7,28.3,28.3
			c0,15.6-12.7,28.3-28.3,28.3C118.3,205,105.6,192.3,105.6,176.7z M328.1,169.5c-0.1,0.2-0.2,0.4-0.2,0.6l-2.6,6.3
			c-19.4,5.6-73.4,0.7-152.5-31.2C107.6,118.9,62.9,88.8,46.3,68.4l-4.6-7l7.6-18.8c21.7,27,76.5,58.8,132.2,81.3
			c49.2,19.9,103.1,34.1,138.7,34.1c4.7,0,9-0.3,12.9-0.8L328.1,169.5z"/>
	</g>
</g>
</svg>
