<!-- Generator: Adobe Illustrator 18.1.0, SVG Export Plug-In  -->
<svg version="1.1"
	 xmlns="http://www.w3.org/2000/svg" xmlns:xlink="http://www.w3.org/1999/xlink" xmlns:a="http://ns.adobe.com/AdobeSVGViewerExtensions/3.0/"
	 x="0px" y="0px" width="588.9px" height="592.9px" viewBox="0 0 588.9 592.9"
	 overflow="scroll" enable-background="new 0 0 588.9 592.9" xml:space="preserve">
<defs>
</defs>
<polygon fill="#FFFFFF" stroke="#000000" stroke-miterlimit="10" points="573.9,438.1 442.9,427.9 435.1,465.1 566,475.6 "/>
<path fill="#FFFFFF" stroke="#000000" stroke-miterlimit="10" d="M542.6,555.7L505,536.8c0,0-27.4,6.7-27.9,7.6s-8.6,19.8-8.6,19.8
	s22.9,20,26.7,21.3s32.6-4,32.6-4l14.5-15.7L542.6,555.7z"/>
<polygon fill="#FFFFFF" stroke="#000000" stroke-miterlimit="10" points="402,542.5 366.9,524.9 342,538.3 340.3,553.4 376.7,575.7
	414.2,564.3 "/>
<path fill="#FFFFFF" stroke="#000000" stroke-miterlimit="10" d="M108.6,423.7C114.4,421,400,222.4,400,222.4l61-34.5l40.9-15.7
	l37.9-41.1l-0.9-34.2l-20.6-50.4L474,17.1l-61.1-2.7l-42.3,29.8l-22.3,53.2l-23.9,34.3c0,0-266.1,228.1-265.8,231.3
	C58.8,366.2,108.6,423.7,108.6,423.7z"/>
<g>
	<g>
		<path d="M420.2,199.6c-44.2-10.9-76.1-47.9-79.3-92.3c-0.3-4.2-0.4-8.5-0.1-12.7c2.8-50.9,44.2-91.5,96.4-94.5
			c10.6-0.6,21.2,0.4,31.4,2.9c44.2,10.9,76.1,47.9,79.3,92.3c2,26.6-6.7,52.4-24.4,72.5c-18.2,20.8-43.8,33.1-71.9,34.7
			C441,203.1,430.4,202.1,420.2,199.6z M463.9,21.6c-8.4-2.1-17.1-2.9-25.8-2.4c-42.4,2.4-76.1,35.2-78.4,76.4
			c-0.2,3.3-0.1,6.8,0.1,10.3c2.6,36,28.7,66.2,64.8,75.1c8.4,2.1,17.1,2.9,25.8,2.4c23-1.3,43.8-11.3,58.6-28.2
			c14.3-16.2,21.2-37,19.7-58.5C526.1,60.7,500,30.5,463.9,21.6z"/>
		<polygon points="107.4,434 46.4,362.7 343.5,92.5 356.3,106.6 72.9,364.4 110.7,408.5 433.3,185.8 444.2,201.5 		"/>
		<rect x="98.9" y="337.1" transform="matrix(-0.6225 -0.7826 0.7826 -0.6225 -41.3293 673.4363)" width="85.7" height="19.1"/>
		<rect x="348.5" y="93.9" transform="matrix(-0.6642 -0.7476 0.7476 -0.6642 657.8282 502.5216)" width="186.7" height="19.1"/>
		<path d="M51.1,527.4c-6.9-1.7-13.8-4.1-20.8-7.4c-18.7-8.9-28.9-21.4-30.2-37.1c-3.5-42.8,64.4-90.9,72.2-96.3l10.9,15.7
			c-25.8,17.8-65.9,55-64,79c0.2,3.2,1,12.8,19.3,21.4c49.3,23.3,99-5.2,142.8-30.4c17.3-9.9,33.7-19.4,48.2-24.1
			c53.5-17.6,103,0.9,118,28.2l-16.7,9.3c-9.7-17.5-49.2-34.4-95.3-19.3c-12.7,4.2-28.2,13.1-44.7,22.6
			C150.7,511.9,102,539.9,51.1,527.4z"/>
	</g>
	<g>
		<path d="M366.6,581.7c-26.5-6.5-43.8-25.4-39.5-43s28.4-26.3,54.9-19.8c26.5,6.5,43.8,25.4,39.5,43
			C417.2,579.5,393.1,588.2,366.6,581.7z M377.4,537.5c-17.2-4.2-30.5,0.7-31.8,5.8s8.3,15.6,25.5,19.8c17.2,4.2,30.5-0.7,31.8-5.8
			S394.6,541.7,377.4,537.5z"/>
		<path d="M498.8,590.7c-26.5-6.5-43.8-25.4-39.5-43c4.3-17.6,28.4-26.3,54.9-19.8c26.5,6.5,43.8,25.4,39.5,43
			S525.3,597.2,498.8,590.7z M509.6,546.6c-17.2-4.2-30.5,0.7-31.8,5.8c-1.3,5.1,8.3,15.6,25.5,19.8c17.2,4.2,30.5-0.7,31.8-5.8
			C536.4,561.3,526.8,550.8,509.6,546.6z"/>
		<polygon points="421.9,558.6 403.3,554.1 437.2,415.9 588.9,427.5 553.7,571 535.1,566.4 565,444.8 451.9,436.2 		"/>

			<rect x="492" y="402.3" transform="matrix(7.584120e-002 -0.9971 0.9971 7.584120e-002 -3.8018 933.2499)" width="19.1" height="132.8"/>
	</g>
</g>
</svg>
