<!-- Generator: Adobe Illustrator 18.1.0, SVG Export Plug-In  -->
<svg version="1.1"
	 xmlns="http://www.w3.org/2000/svg" xmlns:xlink="http://www.w3.org/1999/xlink" xmlns:a="http://ns.adobe.com/AdobeSVGViewerExtensions/3.0/"
	 x="0px" y="0px" width="422.4px" height="415.9px" viewBox="0 0 422.4 415.9"
	 overflow="scroll" enable-background="new 0 0 422.4 415.9" xml:space="preserve">
<defs>
</defs>
<path fill="#FFFFFF" d="M218.3,407.4l29.2-15.6l3.7-15.4c0,0-37.9-41.5-37.4-42.8c0.5-1.3-23.3-67.1-23.3-67.1l25.3-11.9l21.5,18.7
	l39.2,12l37.6-1.8l16.8-0.8l57.8-35.4l23.4-46.7l1.5-53.3l-28.3-30.3l-69.7-20.3l-44.9,12.8l-54.4,49.4c0,0-12.8,38.4-12.5,40.5
	c0.2,2.1-9.8,23.8-9.8,23.8l-19.2,1l-10.5-23.7l24.5-37.1l6.3-40.3l-17.4-51.7L149.9,34L100,8.4l-40.3,7.4c0,0-32.5,26-33,27.3
	s-19,40.2-19,40.2l-0.1,52.3l26,46.2c0,0,43.9,28,44.8,29.8c0.8,1.8,43,7.3,43,7.3l15.5,24l-8,14.8l-62.2,26.7l-47.2,9.4l-4.2,16.7
	l12.2,27.4l12.7,2.7l22-12.7l13.7-17.8l64.2-23.9l10.6-2.7l15.7,12.4c0,0,11.9,32.3,13,34.8c1.1,2.4,20.1,56.7,20.1,56.7l6.1,15
	L218.3,407.4z"/>
<path d="M252.8,285.7c29.5,11,64.7,8.9,96.4-5.6c58.6-26.8,88.1-88.2,65.9-136.9c-9.4-20.6-27.3-36.5-50.2-45.1
	c-29.5-11-64.7-8.9-96.4,5.6c-28.1,12.9-50.5,34-63,59.6c-7.9,16.1-11.2,32.7-10.1,48.7l-16.1,8.2l-6.7-16.3
	c11.8-11.5,20.5-26.6,25.1-44.4c5.7-22.1,4.8-46.1-2.4-69.4c-0.3-1.6-0.7-3.1-1.3-4.4c0,0-0.1,0,0-0.1c-1.4-4.2-3.1-8.4-5-12.5
	C174.3,41.5,149,17,119.5,6.1c-23-8.5-47-8-67.5,1.3C3.4,29.6-14.3,95.4,12.5,154c2,4.3,4.2,8.3,6.5,12.4c0.7,1.4,1.5,2.6,2.4,3.8
	c14.9,23.8,36.2,42.1,60.5,51.1c12.9,4.8,26.1,6.6,38.8,5.7l9.3,18.3l-61.2,31.2c-1.2,0.6-2.3,1-3.6,1.3c-10,2.1-41.7,8.1-41.7,8.1
	c-6.4,1.2-11.7,5.1-14.7,10.9c-3,5.8-3.1,12.4-0.5,18.2l10.3,22.6c2.3,5,6.5,9,11.7,10.9c6.9,2.6,14.5,1.4,20.2-3.2
	c0,0,25.2-20,33.4-26.2c1-0.7,2.1-1.4,3.4-1.9l65.5-26.7l32.2,63.1c0.6,1.2,1,2.3,1.3,3.6c2.1,10,8.1,41.7,8.1,41.7
	c1.3,7.3,6.3,13.2,13.3,15.8l0,0c5.2,1.9,10.9,1.8,16-0.6l22.6-10.3c5.9-2.7,10.1-7.9,11.6-14.1c1.5-6.3,0-12.8-4-17.8
	c0,0-20-25.2-26.3-33.4c-0.7-1-1.4-2.1-1.8-3.4l-25.9-63.6l18.6-7.5C227.8,273.2,239.4,280.7,252.8,285.7z M216.1,347.2
	c6.3,8.2,26.4,33.6,26.4,33.6c1.2,1.5,1.6,3.4,1.2,5.2c-0.4,1.8-1.6,3.3-3.4,4.1l-22.6,10.3c-1.4,0.7-3.1,0.7-4.6,0.2
	c-2-0.7-3.4-2.5-3.8-4.6c0,0-6.1-31.8-8.2-41.9c-0.5-2.6-1.4-5-2.7-7.3l-31.6-61.9l19.4-8l25.9,63.5
	C213.2,342.9,214.4,345.2,216.1,347.2z M359.6,112.1c19.5,7.3,34,20.1,41.9,37.4c18.9,41.2-7.4,93.8-58.6,117.2
	c-5.5,2.5-11.1,4.5-16.7,6.1l26.7-31.7c1.8-2.2,2.2-5.1,1.1-7.7c-1.1-2.5-3.6-4.3-6.4-4.4l-45.1-2.5l26.9-37.6
	c1.5-2.2,1.9-5,0.7-7.4c-1.1-2.4-3.5-4.1-6.1-4.3l-46-4.1l27.6-35.8c1.7-2.2,2-5.3,0.8-7.8c-1.2-2.5-3.8-4.2-6.6-4.2l-39.1-0.4
	c4.4-2.7,9-5.3,13.9-7.5C302.7,104.4,333.8,102.5,359.6,112.1z M218.7,169.9c5.5-11.3,13.4-21.7,22.9-30.6c0.2,0,0.5,0.2,0.7,0.2
	l42.5,0.5l-26.7,34.8c-1.7,2.1-2,5-0.9,7.5c1.1,2.5,3.4,4.1,6.1,4.4l46.6,4.2l-27.2,38c-1.6,2.2-1.8,5.1-0.7,7.5
	c1.2,2.4,3.5,4.1,6.3,4.2l43.7,2.5l-27.4,32.5c-0.4,0.5-0.7,1.2-1,1.8c-15.9,1.5-31.6-0.1-45.7-5.4c-11.9-4.4-21.9-11-29.8-19.3
	l-2.3-2.7c-2-2.3-3.8-4.8-5.4-7.3c-0.1-0.1-0.2-0.3-0.2-0.4c-1.6-2.5-3-5.1-4.2-7.7c-1.3-2.9-2.4-5.8-3.3-8.9c0-0.1,0-0.2-0.1-0.3
	c-0.8-3.1-1.5-6.3-2-9.6l-0.3-2.4C208.9,199.2,211.6,184.3,218.7,169.9z M58.2,20.9c17.2-7.9,36.6-8.2,56.2-0.9
	c25.9,9.6,48.1,31.3,61,59.5c2.1,4.7,3.9,9.5,5.4,14.3c0.4,4.2-2.7,11.9-13.1,22.2c-12.1,12-30.4,24-51.3,33.5
	c-42,19.2-75.5,19.7-83.1,11.8c-2.6-4.3-5.1-8.7-7.3-13.4C2.6,96.7,17,39.7,58.2,20.9z M48.3,180.9c20.8,1.1,48.7-6.3,74.3-18
	c22.5-10.3,42.2-23.2,55.6-36.5c3.1-3.1,5.6-6,7.9-8.9c1.4,13,0.5,26-2.7,38.2c-4.4,16.8-12.9,30.6-24.4,40.5l-0.2,0.2
	c-4.9,4.1-10.1,7.5-15.4,9.9c-2.8,1.2-5.8,2.4-8.9,3.3c-0.1,0-0.1,0-0.2,0.1c-3.1,0.9-6.4,1.6-9.7,2l-3.5,0.4
	c-11,1-22.4-0.6-33.9-4.8C72.6,202,59.4,192.8,48.3,180.9z M143.3,238.6l-7.2-14.1c0.5-0.1,1-0.3,1.5-0.5c1.6-0.4,3.3-0.9,4.8-1.5
	c2.4-0.9,4.7-1.7,6.9-2.7c2.4-1.1,4.8-2.4,7.1-3.8c1.1-0.6,2.1-1.3,3.2-2c0.3-0.2,0.5-0.4,0.8-0.5l5.5,13.4l-13.4,6.9L143.3,238.6z
	 M208.8,251.7l-31.7,13l-30.7,12.5l0,0L82,303.5c-2.5,1-4.8,2.3-6.9,3.8c-8.2,6.3-33.6,26.4-33.6,26.4c-2.9,2.3-7.7,1.3-9.3-2.2
	l-10.3-22.6c-0.8-1.7-0.7-3.6,0.2-5.3c0.9-1.7,2.4-2.8,4.3-3.2c0,0,31.8-6.1,41.9-8.2c2.6-0.5,5-1.4,7.3-2.7l75.2-38.4l34-17.3l0,0
	l13.1-6.7c0.1,0.4,0.3,0.8,0.4,1.2c0.5,1.5,0.9,3,1.4,4.5c0.8,2.6,1.8,5.1,3,7.6c1,2.2,2.2,4.4,3.4,6.5c0.6,1,1.2,1.9,1.8,3
	C208.1,250.6,208.4,251.2,208.8,251.7z"/>
</svg>
