<!-- Generator: Adobe Illustrator 18.1.0, SVG Export Plug-In  -->
<svg version="1.1"
	 xmlns="http://www.w3.org/2000/svg" xmlns:xlink="http://www.w3.org/1999/xlink" xmlns:a="http://ns.adobe.com/AdobeSVGViewerExtensions/3.0/"
	 x="0px" y="0px" width="531.2px" height="373.9px" viewBox="0 0 531.2 373.9"
	 overflow="scroll" enable-background="new 0 0 531.2 373.9" xml:space="preserve">
<defs>
</defs>
<polygon fill="#FFFFFF" stroke="#000000" stroke-miterlimit="10" points="333,277.3 367,292.6 369,313.3 385,332.6 407,340.6
	423,337.3 437,357.3 456.4,368.6 483,365.3 507,339.3 513,278.6 509,243.3 527,217.3 525,194 502.4,174.6 489.7,171.3 460.4,122
	444.4,104 446.4,80.6 431,60.6 407,52.6 391,58.6 348.4,43.3 309,30.6 296.4,24 279,7.3 261,4.6 241,16.6 228.4,34 185.7,40
	142.4,59.3 118.4,54.6 99,62 89.7,75.3 85,91.3 84.4,104.6 66.4,132 39,173.3 21,180.6 3.7,201.3 2.4,222 14.4,236 18.4,242.6
	20.4,292 29.7,344 39.7,361.3 65,369.3 91,358 107.7,334 124.4,340.6 147,333.3 161,315.3 165,297.3 172.4,284.6 189.7,280
	173.7,246 137.7,265.3 129,261.3 109.7,262.6 93,272.6 85,288 85.7,309.3 74.4,324.6 63.7,325.3 58.4,313.3 56.4,250.6 77.7,240.6
	88.4,212.6 83.7,200.6 77.7,184 83,167.3 97.7,144.6 113.7,130 129.7,135.3 153,128 161.7,101.3 163,90.6 180.4,79.3 219,68
	239.7,60.6 237.7,74.6 249.7,81.3 271.7,88.6 289,80.6 302.4,66.6 324.4,72 361.7,84.6 367,93.3 372.4,113.3 387,131.3 424.4,134
	438.4,151.3 455.7,188.6 447.7,204 450.4,227.3 467.7,244 476.4,256 477,290 472.4,322 458.4,328.6 443.7,303.3 442.4,283.3
	425.7,266.6 405,261.3 392.4,263.3 350.4,246.6 "/>
<path d="M531.2,211.8c0-22.6-16.5-41-37.9-45.3c-10.4-22.6-24.5-43.5-41-61.8c0.6-3.1,1.2-6.1,1.2-9.8c0-25.1-20.8-45.9-45.9-45.9
	c-6.7,0-13.5,1.8-19.6,4.3c-25.1-14.1-52.6-23.9-81.4-28.2C299.3,10.4,284,0,266.2,0s-33,10.4-40.4,25.1
	c-28.8,4.9-56.3,14.1-82,28.2c-6.1-3.1-12.2-4.3-19.6-4.3c-25.1,0-45.9,20.8-45.9,45.9c0,3.1,0.6,6.7,1.2,9.8
	c-17.1,18.4-30.6,39.2-41,61.8C15.9,170.1,0,189.1,0,211.8c0,13.5,6.1,25.7,15.3,34.3c-1.2,9.2-1.8,19-1.8,28.2
	c0,22.6,3.1,45.3,9.2,67.3c5.5,19.6,22.6,32.4,42.8,32.4c14.1,0,26.3-6.1,34.9-17.7c3.1-4.3,6.7-8.6,10.4-12.9
	c4.3,1.2,8.6,1.8,12.9,1.8c25.1,0,45.9-20.8,45.9-45.9c0-1.2,0-2.4,0-3.7c4.3-2.4,8.6-4.3,12.9-6.1c3.7,6.7,12.2,9.8,19.6,7.3
	c23.9-8,74.7-20.2,127.9-0.6c7.3,2.4,15.9,0,19.6-6.7c4.3,1.8,8.6,4.3,12.2,6.1c0,1.2,0,2.4,0,3.7c0,25.1,20.8,45.9,45.9,45.9
	c4.3,0,8.6-0.6,12.9-1.8c3.7,4.3,7.3,8.6,10.4,12.9c8.6,11,20.8,17.7,34.9,17.7c20.2,0,37.3-12.9,42.8-32.4
	c7.3-26.9,10.4-55.1,8.6-83.2c0-4.3-0.6-8.6-1.2-12.9C525.1,237.5,531.2,225.2,531.2,211.8z M407.6,61.8c17.7,0,32.4,14.1,33.7,31.8
	c-12.2-11.6-25.1-22-39.2-31.2C403.9,61.8,405.8,61.8,407.6,61.8z M265.6,12.9c9.8,0,18.4,4.3,24.5,10.4c-2.4,0-4.3-0.6-6.7-0.6
	c-6.1-0.6-11.6-0.6-17.7-0.6l0,0c-8,0-16.5,0.6-24.5,1.2C247.2,16.5,255.8,12.9,265.6,12.9z M123.6,61.8c1.8,0,3.7,0,5.5,0.6
	C115.1,71.6,102.2,82,90,93.6C91.2,75.3,105.9,61.8,123.6,61.8z M12.2,211.8c0-13.5,8-24.5,19-30c-6.1,15.3-10.4,31.8-13.5,48.3
	C14.1,224.6,12.2,218.5,12.2,211.8z M123.6,332.9c-1.2,0-1.8,0-3.1,0c11-11.6,23.3-21.4,36.7-29.4
	C155.4,320.1,140.8,332.9,123.6,332.9z M90,296.8c1.2-17.1,15.9-31.2,33.7-31.2c1.2,0,3.1,0,4.3,0.6
	C114.4,274.8,101.6,285.2,90,296.8z M142,257.7c-5.5-2.4-11.6-4.3-18.4-4.3c-25.1,0-45.9,20.8-45.9,45.9c0,3.1,0.6,6.1,1.2,9.2
	c-3.1,3.1-6.1,6.7-8.6,9.8c-0.6,0.6-1.2,1.2-2.4,1.2c-1.2,0-2.4-0.6-2.4-2.4c-3.1-14.1-4.9-28.8-4.9-43.5c0-6.7,0.6-12.9,1.2-19.6
	c17.7-6.7,30-23.3,30-42.8c0-10.4-3.7-20.8-9.8-28.2c8-15.9,17.7-30.6,29.4-44.1c4.3,1.2,8,1.8,12.2,1.8c25.1,0,45.9-20.8,45.9-45.9
	c0-0.6,0-1.2,0-2.4c18.4-9.8,37.9-16.5,58.8-20.2c8.6,11.6,22,19.6,37.3,19.6s29.4-8,37.3-19.6c20.8,3.7,40.4,11,58.8,20.2
	c0,0.6,0,1.8,0,2.4c0,25.1,20.8,45.9,45.9,45.9c4.3,0,8.6-0.6,12.9-1.8c11.6,13.5,21.4,28.2,29.4,44.1c-6.1,8-9.8,17.7-9.8,28.2
	c0,19.6,12.9,36.7,30,42.8c0,2.4,0.6,4.3,0.6,6.7c1.2,19-0.6,37.9-4.3,56.3c0,1.2-1.2,2.4-2.4,2.4c-0.6,0-1.8-0.6-2.4-1.2
	c-3.1-3.7-5.5-6.7-8.6-9.8c0.6-3.1,1.2-6.1,1.2-9.2c0-25.1-20.8-45.9-45.9-45.9c-6.7,0-12.9,1.2-18.4,4.3
	c-6.1-3.7-12.9-6.7-19.6-9.8c3.1-8.6-0.6-17.7-9.2-21.4c-5.5-2.4-11.6-4.3-17.1-6.1c-3.7-1.2-7.3-0.6-10.4,0.6
	c-1.8,0.6-3.7,0.6-5.5,0.6c-4.9,0-9.2-1.8-12.2-4.9c-2.4-2.4-6.1-4.3-9.8-4.9c-6.7-1.2-13.5-1.8-20.2-1.8c-3.7,0-8,0.6-11,2.4
	c-2.4,1.2-5.5,2.4-8.6,2.4c-2.4,0-5.5-0.6-7.3-1.8c-4.3-1.8-8-3.1-11.6-3.1c-6.7,0.6-13.5,1.2-20.2,2.4c-4.3,0.6-9.2,1.8-12.2,4.9
	c-3.1,2.4-6.7,4.3-11,4.3c-1.2,0-3.1,0-4.3-0.6c-4.3-1.2-9.2-0.6-13.5,0.6c-5.5,1.8-10.4,3.1-14.7,4.9c-8.6,3.1-12.9,12.9-9.8,20.8
	C154.8,250.3,148.7,254,142,257.7z M75.9,196.5c2.4,4.3,3.7,9.8,3.7,15.3c0,12.2-6.7,22.6-15.9,28.8
	C66.1,225.2,70.4,210.5,75.9,196.5z M121.2,128.5c11-11,22.6-20.2,36.1-28.2c-2.4,15.9-16.5,28.8-33,28.8
	C123,129.1,121.8,128.5,121.2,128.5z M242.4,70.4c8-0.6,15.3-1.2,23.3-1.2c4.9,0,9.8,0,14.7,0.6c3.1,0,6.1,0.6,9.2,0.6
	c-6.1,6.1-14.1,9.8-23.3,9.8C256.4,80.2,248.5,76.5,242.4,70.4z M373.9,99.8c12.9,8,25.1,17.7,36.1,28.8c-1.2,0-1.8,0-3.1,0
	C390.5,129.1,376.4,116.3,373.9,99.8z M455.3,196.5c5.5,14.1,9.8,28.8,12.2,43.5c-9.8-6.1-15.9-16.5-15.9-28.8
	C451.7,206.2,452.9,200.7,455.3,196.5z M402.7,266.2c1.2,0,3.1-0.6,4.3-0.6c17.7,0,32.4,13.5,33.7,31.2
	C429,285.2,416.2,274.8,402.7,266.2z M407.6,332.9c-17.1,0-31.2-12.9-33.7-30c12.9,8.6,25.1,18.4,36.7,29.4
	C409.4,332.9,408.2,332.9,407.6,332.9z M496.3,338.4c-4.3,14.7-17.7,23.3-31.2,23.3c-9.2,0-19-4.3-25.1-12.9
	c-22.6-30-52-54.5-85.7-69.8c3.1-6.7,6.7-13.5,9.8-20.2c33,15.3,63,37.9,86.9,67.9c3.1,3.7,7.3,5.5,11.6,5.5
	c7.3,0,13.5-4.9,14.7-11.6c4.3-19.6,5.5-39.8,4.3-59.4c-6.7-108.3-93-195.8-201.3-203.2c-4.9-1.2-9.8-1.2-14.7-1.2
	c-120,0-217.3,97.3-217.3,217.3c0,15.9,1.8,31.2,4.9,45.9c1.2,6.7,7.3,11.6,14.7,11.6c4.3,0,8.6-1.8,11.6-5.5
	c23.9-29.4,53.9-52.6,86.9-67.9l9.8,20.2c-33.7,15.9-63.6,39.8-85.7,70.4c-6.7,8.6-15.9,12.9-25.1,12.9c-13.5,0-26.9-8.6-31.2-23.9
	c-5.5-20.2-8.6-41.6-8.6-63.6C25.7,142,132.8,34.3,265.6,34.3c5.5,0,11,0,17.1,0.6c118.7,8,214.8,105.3,222.2,224
	C506.1,286.4,503.7,313.3,496.3,338.4z M513.5,229.5c-3.1-16.5-7.3-33-13.5-48.3c11,5.5,19,17.1,19,30.6
	C519,218.5,517.1,224.6,513.5,229.5z"/>
</svg>
