<!-- Generator: Adobe Illustrator 18.1.0, SVG Export Plug-In  -->
<svg version="1.1"
	 xmlns="http://www.w3.org/2000/svg" xmlns:xlink="http://www.w3.org/1999/xlink" xmlns:a="http://ns.adobe.com/AdobeSVGViewerExtensions/3.0/"
	 x="0px" y="0px" width="524.3px" height="331.7px" viewBox="0 0 524.3 331.7"
	 overflow="scroll" enable-background="new 0 0 524.3 331.7" xml:space="preserve">
<defs>
</defs>
<polygon fill="#FFFFFF" points="9.9,150.7 64.4,150.2 110.4,149.2 115.9,160.2 119.4,278.2 111.4,286.7 10.9,287.2 5.9,277.7 "/>
<polygon fill="#FFFFFF" points="155.4,162.7 169.9,140.7 200.4,123.7 240.9,114.7 272.4,120.7 305.9,136.7 330.9,167.7 345.4,198.7
	348.4,232.2 338.9,262.2 324.4,287.7 297.9,311.2 252.9,325.7 211.9,319.7 173.4,300.2 147.9,268.7 136.4,232.2 141.4,190.7 "/>
<polygon fill="#FFFFFF" points="330.4,155.7 429.9,156.2 441.9,164.7 439.9,202.2 429.9,207.2 347.4,206.7 "/>
<path fill="#FFFFFF" d="M468.4,102.7l10-7l3.5-15.5l-13-5l-13,1.5l-36.5-17l36.5-8.5l36-11.5l-7-9.5l-61-14.5l-21.5,3l-15-10.5
	h-18.5l-5.5,10l-8.5-4.5l-65,15l-12.5,7.5l9,8c0,0,52.5,15,54,15.5s57.5-4,57.5-4l36.5,17l23,10.5l0.5,15.5L468.4,102.7z"/>
<g>
	<path d="M522.6,320.7l-48.3-49V104.7c3.1-1.2,5.5-2.4,8-4.9l27.5,13.5c0.6,0.6,1.8,0.6,2.4,0.6c2.4,0,4.3-1.2,5.5-3.7
		c1.2-3.1,0-6.7-3.1-8l-27.5-13.5c0-0.6,0-1.8,0-2.4c0-10.4-8.6-19.6-19.6-19.6c-5.5,0-10.4,2.4-14.1,6.1L429,61.2
		c31.2-3.1,65.5-9.8,65.5-25.1c0-20.8-61.2-25.7-93.6-26.9c-4.3-5.5-11-9.2-19-9.2c-7.3,0-14.7,3.7-19,9.2
		c-32.4,1.2-93.6,6.1-93.6,26.9c0,26.9,101,27.5,112,27.5c3.1,0,11,0,21.4-0.6l44.1,21.4c0,0.6,0,1.8,0,2.4
		c0,8.6,5.5,15.9,13.5,18.4v167.1l-44.1,49c-2.4,2.4-1.8,6.1,0.6,8.6c1.2,1.2,2.4,1.8,4.3,1.8c1.8,0,3.1-0.6,4.3-1.8L467,284
		l45.3,45.9c1.2,1.2,3.1,1.8,4.3,1.8c1.8,0,3.1-0.6,4.3-1.8C525.1,326.8,525.1,323.1,522.6,320.7z M283.4,35.5
		c4.3-4.9,31.2-12.9,75.9-14.7c0,0.6,0,1.2,0,2.4c0,3.7,2.4,6.1,6.1,6.1c3.7,0,6.1-2.4,6.1-6.1c0-6.1,5.5-11.6,11.6-11.6
		c6.1,0,11.6,5.5,11.6,11.6c0,3.7,2.4,6.1,6.1,6.1s6.1-2.4,6.1-6.1c0-0.6,0-1.2,0-2.4c44.7,1.8,71.6,9.8,75.9,14.7
		c-4.9,5.5-40.4,15.3-99.8,15.3S288.3,41.6,283.4,35.5z M468.2,78.9c3.7,0,7.3,3.1,7.3,7.3c0,3.7-3.1,7.3-7.3,7.3
		c-3.7,0-7.3-3.1-7.3-7.3C461.4,82.6,464.5,78.9,468.2,78.9z"/>
	<path d="M384.9,271.7v-60h45.9c7.3,0,13.5-6.1,13.5-13.5v-34.9c0-7.3-6.1-13.5-13.5-13.5H329.3h-0.6
		c-20.2-25.7-51.4-41.6-86.9-41.6c-61.2,0-110.8,49.6-110.8,110.8c0,23.9,7.3,45.9,20.2,63.6l-22,37.9c-1.8,3.1-0.6,6.7,2.4,8.6
		c1.2,0.6,1.8,0.6,3.1,0.6c1.8,0,4.3-1.2,5.5-3.1l19.6-33.7c20.2,22.6,49.6,36.7,82,36.7s61.8-14.1,82-36.7l19.6,33.7
		c1.2,1.8,3.1,3.1,5.5,3.1c1.2,0,1.8,0,3.1-0.6c3.1-1.8,3.7-5.5,2.4-8.6l-22-37.9c12.9-18.4,20.2-40.4,20.2-63.6c0-2.4,0-5.5-0.6-8
		h20.8v60l-23.3,25.1c-2.4,2.4-2.4,6.1,0,8.6c1.2,1.2,2.4,1.8,4.3,1.8c1.8,0,3.1-0.6,4.3-1.8l20.8-22l23.3,23.9
		c1.2,1.2,3.1,1.8,4.3,1.8c1.8,0,3.1-0.6,4.3-1.8c2.4-2.4,2.4-6.1,0-8.6L384.9,271.7z M241.7,318.9c-54.5,0-98.5-44.1-98.5-98.5
		s44.1-98.5,98.5-98.5s98.5,44.1,98.5,98.5C340.3,274.2,296.2,318.9,241.7,318.9z M336.6,162.8h94.9c0.6,0,1.2,0.6,1.2,1.2v34.9
		c0,0.6-0.6,1.2-1.2,1.2h-80.8C348.2,186.7,343.3,174.4,336.6,162.8z"/>
	<path d="M265.6,260.1c-12.2,0-22,9.8-22,22c0,12.2,9.8,22,22,22c12.2,0,22-9.8,22-22C287.6,269.9,277.8,260.1,265.6,260.1z
		 M265.6,291.9c-5.5,0-9.8-4.3-9.8-9.8c0-5.5,4.3-9.8,9.8-9.8c5.5,0,9.8,4.3,9.8,9.8C275.4,287.6,271.1,291.9,265.6,291.9z"/>
	<path d="M108.3,142.6H14.1c-8,0-14.1,6.7-14.1,14.1v120.6c0,8,6.7,14.1,14.1,14.1h7.3v20.8c0,3.7,2.4,6.1,6.1,6.1s6.1-2.4,6.1-6.1
		v-20.8h22.6c0,0.6-0.6,1.2-0.6,1.8v6.7c0,3.7,2.4,6.1,6.1,6.1s6.1-2.4,6.1-6.1v-6.1c0-0.6,0-1.2-0.6-1.8h23.3v20.8
		c0,3.7,2.4,6.1,6.1,6.1s6.1-2.4,6.1-6.1v-20.8h4.9c8,0,14.1-6.7,14.1-14.1V157.3C122.4,149.3,116.3,142.6,108.3,142.6z
		 M110.2,277.8c0,1.2-1.2,1.8-1.8,1.8h-5.5v-10.4c0-3.7-2.4-6.1-6.1-6.1s-6.1,2.4-6.1,6.1v11H33.7v-11c0-3.7-2.4-6.1-6.1-6.1
		s-6.1,2.4-6.1,6.1v11h-7.3c-1.2,0-1.8-1.2-1.8-1.8V157.3c0-1.2,1.2-1.8,1.8-1.8h94.2c1.2,0,1.8,1.2,1.8,1.8L110.2,277.8
		L110.2,277.8z"/>
</g>
</svg>
