<!-- Generator: Adobe Illustrator 18.1.0, SVG Export Plug-In  -->
<svg version="1.1"
	 xmlns="http://www.w3.org/2000/svg" xmlns:xlink="http://www.w3.org/1999/xlink" xmlns:a="http://ns.adobe.com/AdobeSVGViewerExtensions/3.0/"
	 x="0px" y="0px" width="456px" height="204.8px" viewBox="0 0 456 204.8" overflow="scroll" enable-background="new 0 0 456 204.8"
	 xml:space="preserve">
<defs>
</defs>
<path fill="#FFFFFF" stroke="#000000" stroke-miterlimit="10" d="M19.5,198.6c139.8-0.7,279.6-1.3,419.3-2
	c0.9-44.2,1.8-88.4,2.7-132.7c2.4-2.2,4.9-4.4,7.3-6.7c-0.9-10.9-1.8-21.8-2.7-32.7c-104.7-2.9-209.3-5.8-314-8.7
	C94.6,16,57,16,19.5,16c-1.3,17.8-2.7,35.6-4,53.3C16.8,112.4,18.1,155.5,19.5,198.6z"/>
<path d="M445.5,204.8H10.6V58.6h434.9V204.8z M22.8,192.7h410.6V70.8H22.8V192.7z"/>
<rect x="57" y="75.6" width="15.3" height="73.4"/>
<rect x="88.8" y="75.6" width="15.3" height="73.4"/>
<rect x="198.4" y="75.6" width="15.3" height="73.4"/>
<rect x="133.7" y="75.6" width="15.4" height="73.4"/>
<rect x="165.5" y="75.6" width="15.3" height="73.4"/>
<rect x="243.6" y="75.6" width="15.4" height="73.4"/>
<rect x="275.4" y="75.6" width="15.3" height="73.4"/>
<rect x="385" y="75.6" width="15.3" height="73.4"/>
<rect x="320.3" y="75.6" width="15.3" height="73.4"/>
<rect x="352.1" y="75.6" width="15.3" height="73.4"/>
<path d="M0,0v75.6h456V0H0z M56.3,54.3c-8.8,0-16-7.2-16-16s7.2-16,16-16c8.8,0,16,7.2,16,16C72.4,47.2,65.2,54.3,56.3,54.3z
	 M104.1,53.8c-8.8,0-16-7.2-16-16c0-8.8,7.2-16,16-16c8.8,0,16,7.2,16,16C120.2,46.7,113,53.8,104.1,53.8z M439.4,54.3h-241V38.1
	h241V54.3z"/>
<rect x="57.8" y="23.7" transform="matrix(-0.8632 -0.5048 0.5048 -0.8632 97.6081 88.9461)" width="6.1" height="15.2"/>
<rect x="103.4" y="38.2" transform="matrix(-0.9035 -0.4286 0.4286 -0.9035 194.3114 126.2248)" width="16" height="6.1"/>
</svg>
