<!-- Generator: Adobe Illustrator 18.1.0, SVG Export Plug-In  -->
<svg version="1.1"
	 xmlns="http://www.w3.org/2000/svg" xmlns:xlink="http://www.w3.org/1999/xlink" xmlns:a="http://ns.adobe.com/AdobeSVGViewerExtensions/3.0/"
	 x="0px" y="0px" width="351.3px" height="412px" viewBox="0 0 351.3 412" overflow="scroll" enable-background="new 0 0 351.3 412"
	 xml:space="preserve">
<defs>
</defs>
<g>
	<path fill="#FFFFFF" d="M185.3,173.5c-2.5-2.5-5.9-4-9.7-4c-3.8,0-7.2,1.5-9.7,4l-64.8,64.8c-5.4,5.4-5.4,14,0,19.4
		c5.4,5.4,14,5.4,19.4,0l41.4-41.4v182c0,7.6,6.1,13.7,13.7,13.7c7.6,0,13.7-6.1,13.7-13.7v-182l41.4,41.4c2.7,2.7,6.2,4,9.7,4
		c3.5,0,7-1.3,9.7-4c5.4-5.4,5.4-14,0-19.4L185.3,173.5z"/>
	<path fill="#FFFFFF" d="M336.2,128.4c6.7-29.6,1.3-58.6-15.4-80.6C295.5,14.6,250,4.5,207.4,21.7C192.3,7.8,172.4,0,151.7,0
		c-43.8,0-79.7,34.2-82.5,77.3C30,83.8,0,117.9,0,158.9c0,43.4,33.9,79.6,77.2,82.4c0.3,0,0.6,0,0.9,0c7.2,0,13.2-5.6,13.7-12.8
		c0.5-7.5-5.2-14.1-12.8-14.6c-28.9-1.9-51.6-26.1-51.6-55.1c0-30.5,24.8-55.3,54.5-55.3l16.5,0l-1.7-15.2c-0.2-1.9-0.3-3.8-0.3-5.7
		c0-30.5,24.8-55.3,55.3-55.3c16.3,0,31.6,7.1,42.1,19.6l7,8.3l9.7-4.9c33.1-16.7,69.5-10.9,88.5,14.1c12.8,16.8,16.1,40.1,8.9,63.9
		l-2.4,8.1l6.2,5.8c7.8,7.3,12.1,17.2,12.1,27.8c0,21-17.1,38-38,38c-6.5,0-13-1.7-18.7-5c-6.6-3.7-14.9-1.5-18.7,5.1
		c-3.7,6.6-1.4,14.9,5.1,18.7c9.8,5.6,21,8.6,32.3,8.6c36.1,0,65.4-29.3,65.4-65.4C351.3,154.9,345.9,140.1,336.2,128.4z"/>
</g>
</svg>
