<!-- Generator: Adobe Illustrator 18.1.0, SVG Export Plug-In  -->
<svg version="1.1"
	 xmlns="http://www.w3.org/2000/svg" xmlns:xlink="http://www.w3.org/1999/xlink" xmlns:a="http://ns.adobe.com/AdobeSVGViewerExtensions/3.0/"
	 x="0px" y="0px" width="538.6px" height="359px" viewBox="0 0 538.6 359" overflow="scroll" enable-background="new 0 0 538.6 359"
	 xml:space="preserve">
<defs>
</defs>
<g>
	<g>
		<path fill="#FFFFFF" d="M500.1,0c-9.6,0-12.8,0-12.8,0h-436c0,0-3.2,0-12.8,0C17.2,0,0,17.2,0,38.5c0,21.3,17.2,38.5,38.5,38.5
			c9.6,0,12.8,0,12.8,0h436c0,0,3.2,0,12.8,0c21.2,0,38.5-17.2,38.5-38.5C538.6,17.2,521.3,0,500.1,0z M256.5,282.1H25.6
			C11.5,282.1,0,293.6,0,307.7c0,14.2,11.5,25.6,25.6,25.6h230.8c14.2,0,25.6-11.5,25.6-25.6C282.1,293.6,270.6,282.1,256.5,282.1z
			 M25.6,205.2h282.1c14.2,0,25.6-11.5,25.6-25.6c0-14.2-11.5-25.6-25.6-25.6H25.6C11.5,153.9,0,165.4,0,179.5
			C0,193.7,11.5,205.2,25.6,205.2z M359,256.5c-28.3,0-51.3,23-51.3,51.3c0,28.3,23,51.3,51.3,51.3c28.3,0,51.3-23,51.3-51.3
			C410.3,279.4,387.4,256.5,359,256.5z"/>
	</g>
</g>
</svg>
