<!-- Generator: Adobe Illustrator 18.1.0, SVG Export Plug-In  -->
<svg version="1.1"
	 xmlns="http://www.w3.org/2000/svg" xmlns:xlink="http://www.w3.org/1999/xlink" xmlns:a="http://ns.adobe.com/AdobeSVGViewerExtensions/3.0/"
	 x="0px" y="0px" width="581.4px" height="581.4px" viewBox="0 0 581.4 581.4"
	 overflow="scroll" enable-background="new 0 0 581.4 581.4" xml:space="preserve">
<defs>
</defs>
<polygon fill="#FFFFFF" stroke="#000000" stroke-miterlimit="10" points="255.7,460.7 408.7,454.7 498.7,306.7 404.7,158.7
	182.7,115.7 112.7,219.7 146.7,386.7 226.7,489.7 "/>
<path d="M290.7,0C130.2,0,0,130.1,0,290.7s130.2,290.7,290.7,290.7s290.7-130.1,290.7-290.7S451.2,0,290.7,0z M393.3,354.2
	c10.8,10.8,10.8,28.3,0,39.1c-5.4,5.4-12.5,8.1-19.6,8.1c-7.1,0-14.2-2.7-19.6-8.1l-63.5-63.5l-63.5,63.5
	c-5.4,5.4-12.5,8.1-19.6,8.1s-14.2-2.7-19.6-8.1c-10.8-10.8-10.8-28.3,0-39.1l63.5-63.5l-63.5-63.5c-10.8-10.8-10.8-28.4,0-39.1
	c10.8-10.8,28.3-10.8,39.1,0l63.5,63.5l63.5-63.5c10.8-10.8,28.3-10.8,39.1,0c10.8,10.8,10.8,28.3,0,39.1l-63.5,63.5L393.3,354.2z"
	/>
</svg>
