<!-- Generator: Adobe Illustrator 18.1.0, SVG Export Plug-In  -->
<svg version="1.1"
	 xmlns="http://www.w3.org/2000/svg" xmlns:xlink="http://www.w3.org/1999/xlink" xmlns:a="http://ns.adobe.com/AdobeSVGViewerExtensions/3.0/"
	 x="0px" y="0px" width="132.5px" height="1403.7px" viewBox="0 0 132.5 1403.7"
	 overflow="scroll" enable-background="new 0 0 132.5 1403.7" xml:space="preserve">
<defs>
</defs>
<polyline fill="#FFFFFF" stroke="#000000" stroke-miterlimit="10" points="0.5,56.4 132,56.4 132,75.4 0.5,75.4 "/>
<polyline fill="#FFFFFF" stroke="#000000" stroke-miterlimit="10" points="0.5,1157.4 132,1157.4 132,1176.4 0.5,1176.4 "/>
<polyline fill="#FFFFFF" stroke="#000000" stroke-miterlimit="10" points="0.5,1136.4 132,1136.4 132,1156.4 0.5,1156.4 "/>
<polyline fill="#FFFFFF" stroke="#000000" stroke-miterlimit="10" points="0.5,1116.4 132,1116.4 132,1135.4 0.5,1135.4 "/>
<polyline fill="#FFFFFF" stroke="#000000" stroke-miterlimit="10" points="0.5,1096.4 132,1096.4 132,1115.4 0.5,1115.4 "/>
<polyline fill="#FFFFFF" stroke="#000000" stroke-miterlimit="10" points="0.5,1076.4 132,1076.4 132,1095.4 0.5,1095.4 "/>
<polyline fill="#FFFFFF" stroke="#000000" stroke-miterlimit="10" points="0.5,1056.4 132,1056.4 132,1075.4 0.5,1075.4 "/>
<polyline fill="#FFFFFF" stroke="#000000" stroke-miterlimit="10" points="0.5,995.4 132,995.4 132,1014.4 0.5,1014.4 "/>
<polyline fill="#FFFFFF" stroke="#000000" stroke-miterlimit="10" points="0.5,975.4 132,975.4 132,994.4 0.5,994.4 "/>
<polyline fill="#FFFFFF" stroke="#000000" stroke-miterlimit="10" points="0.5,955.4 132,955.4 132,974.4 0.5,974.4 "/>
<polyline fill="#FFFFFF" stroke="#000000" stroke-miterlimit="10" points="0.5,935.4 132,935.4 132,954.4 0.5,954.4 "/>
<polyline fill="#FFFFFF" stroke="#000000" stroke-miterlimit="10" points="0.5,915.4 132,915.4 132,934.4 0.5,934.4 "/>
<polyline fill="#FFFFFF" stroke="#000000" stroke-miterlimit="10" points="0.5,894.4 132,894.4 132,914.4 0.5,914.4 "/>
<polyline fill="#FFFFFF" stroke="#000000" stroke-miterlimit="10" points="0.5,874.4 132,874.4 132,893.4 0.5,893.4 "/>
<polyline fill="#FFFFFF" stroke="#000000" stroke-miterlimit="10" points="0.5,854.4 132,854.4 132,873.4 0.5,873.4 "/>
<polyline fill="#FFFFFF" stroke="#000000" stroke-miterlimit="10" points="0.5,834.4 132,834.4 132,853.4 0.5,853.4 "/>
<polyline fill="#FFFFFF" stroke="#000000" stroke-miterlimit="10" points="0.5,814.4 132,814.4 132,833.4 0.5,833.4 "/>
<polyline fill="#FFFFFF" stroke="#000000" stroke-miterlimit="10" points="0.5,794.4 132,794.4 132,813.4 0.5,813.4 "/>
<polyline fill="#FFFFFF" stroke="#000000" stroke-miterlimit="10" points="0.5,733.4 132,733.4 132,752.4 0.5,752.4 "/>
<polyline fill="#FFFFFF" stroke="#000000" stroke-miterlimit="10" points="0.5,713.4 132,713.4 132,732.4 0.5,732.4 "/>
<polyline fill="#FFFFFF" stroke="#000000" stroke-miterlimit="10" points="0.5,693.4 132,693.4 132,712.4 0.5,712.4 "/>
<polyline fill="#FFFFFF" stroke="#000000" stroke-miterlimit="10" points="0.5,673.4 132,673.4 132,692.4 0.5,692.4 "/>
<polyline fill="#FFFFFF" stroke="#000000" stroke-miterlimit="10" points="0.5,653.4 132,653.4 132,672.4 0.5,672.4 "/>
<polyline fill="#FFFFFF" stroke="#000000" stroke-miterlimit="10" points="0.5,633.4 132,633.4 132,652.4 0.5,652.4 "/>
<polyline fill="#FFFFFF" stroke="#000000" stroke-miterlimit="10" points="0.5,613.4 132,613.4 132,632.4 0.5,632.4 "/>
<polyline fill="#FFFFFF" stroke="#000000" stroke-miterlimit="10" points="0.5,593.4 132,593.4 132,612.4 0.5,612.4 "/>
<polyline fill="#FFFFFF" stroke="#000000" stroke-miterlimit="10" points="0.5,573.4 132,573.4 132,592.4 0.5,592.4 "/>
<polyline fill="#FFFFFF" stroke="#000000" stroke-miterlimit="10" points="0.5,553.4 132,553.4 132,572.4 0.5,572.4 "/>
<polyline fill="#FFFFFF" stroke="#000000" stroke-miterlimit="10" points="0.5,533.4 132,533.4 132,552.4 0.5,552.4 "/>
<polyline fill="#FFFFFF" stroke="#000000" stroke-miterlimit="10" points="0.5,472.4 132,472.4 132,491.4 0.5,491.4 "/>
<polyline fill="#FFFFFF" stroke="#000000" stroke-miterlimit="10" points="0.5,452.4 132,452.4 132,471.4 0.5,471.4 "/>
<polyline fill="#FFFFFF" stroke="#000000" stroke-miterlimit="10" points="0.5,432.4 132,432.4 132,451.4 0.5,451.4 "/>
<polyline fill="#FFFFFF" stroke="#000000" stroke-miterlimit="10" points="0.5,412.4 132,412.4 132,431.4 0.5,431.4 "/>
<polyline fill="#FFFFFF" stroke="#000000" stroke-miterlimit="10" points="0.5,391.4 132,391.4 132,411.4 0.5,411.4 "/>
<polyline fill="#FFFFFF" stroke="#000000" stroke-miterlimit="10" points="0.5,371.4 132,371.4 132,390.4 0.5,390.4 "/>
<polyline fill="#FFFFFF" stroke="#000000" stroke-miterlimit="10" points="0.5,351.4 132,351.4 132,370.4 0.5,370.4 "/>
<polyline fill="#FFFFFF" stroke="#000000" stroke-miterlimit="10" points="0.5,331.4 132,331.4 132,350.4 0.5,350.4 "/>
<polyline fill="#FFFFFF" stroke="#000000" stroke-miterlimit="10" points="0.5,311.4 132,311.4 132,330.4 0.5,330.4 "/>
<polyline fill="#FFFFFF" stroke="#000000" stroke-miterlimit="10" points="0.5,291.4 132,291.4 132,310.4 0.5,310.4 "/>
<polyline fill="#FFFFFF" stroke="#000000" stroke-miterlimit="10" points="0.5,270.4 132,270.4 132,290.4 0.5,290.4 "/>
<polyline fill="#FFFFFF" stroke="#000000" stroke-miterlimit="10" points="0.5,210.4 132,210.4 132,229.4 0.5,229.4 "/>
<polyline fill="#FFFFFF" stroke="#000000" stroke-miterlimit="10" points="0.5,190.4 132,190.4 132,209.4 0.5,209.4 "/>
<polyline fill="#FFFFFF" stroke="#000000" stroke-miterlimit="10" points="0.5,170.4 132,170.4 132,189.4 0.5,189.4 "/>
<polyline fill="#FFFFFF" stroke="#000000" stroke-miterlimit="10" points="0.5,129.4 132,129.4 132,148.4 0.5,148.4 "/>
<polyline fill="#FFFFFF" stroke="#000000" stroke-miterlimit="10" points="0.5,109.4 132,109.4 132,128.4 0.5,128.4 "/>
<polyline fill="#FFFFFF" stroke="#000000" stroke-miterlimit="10" points="0.5,89.4 132,89.4 132,108.4 0.5,108.4 "/>
<polyline fill="#FFFFFF" stroke="#000000" stroke-miterlimit="10" points="0.5,250.4 132,250.4 132,269.4 0.5,269.4 "/>
<polyline fill="#FFFFFF" stroke="#000000" stroke-miterlimit="10" points="0.5,230.4 132,230.4 132,249.4 0.5,249.4 "/>
<polyline fill="#FFFFFF" stroke="#000000" stroke-miterlimit="10" points="0.5,512.4 132,512.4 132,532.4 0.5,532.4 "/>
<polyline fill="#FFFFFF" stroke="#000000" stroke-miterlimit="10" points="0.5,492.4 132,492.4 132,511.4 0.5,511.4 "/>
<polyline fill="#FFFFFF" stroke="#000000" stroke-miterlimit="10" points="0.5,773.4 132,773.4 132,793.4 0.5,793.4 "/>
<polyline fill="#FFFFFF" stroke="#000000" stroke-miterlimit="10" points="0.5,753.4 132,753.4 132,772.4 0.5,772.4 "/>
<polyline fill="#FFFFFF" stroke="#000000" stroke-miterlimit="10" points="0.5,1036.4 132,1036.4 132,1055.4 0.5,1055.4 "/>
<polyline fill="#FFFFFF" stroke="#000000" stroke-miterlimit="10" points="0.5,1015.4 132,1015.4 132,1035.4 0.5,1035.4 "/>
<polyline fill="#FFFFFF" stroke="#000000" stroke-miterlimit="10" points="0.5,149.4 132,149.4 132,169.4 0.5,169.4 "/>
<rect x="0.5" y="1132.9" width="84" height="12"/>
<rect x="0.5" y="1109.9" width="84" height="12"/>
<rect x="0.5" y="1087.9" width="84" height="12"/>
<rect x="0.5" y="1052.9" width="84" height="12"/>
<rect x="0.5" y="1027.9" width="84" height="12"/>
<rect x="0.5" y="991.9" width="84" height="12"/>
<rect x="0.5" y="968.9" width="84" height="12"/>
<rect x="0.5" y="946.9" width="84" height="12"/>
<rect x="0.5" y="911.9" width="84" height="12"/>
<rect x="0.5" y="886.9" width="84" height="12"/>
<rect x="0.5" y="850.9" width="84" height="12"/>
<rect x="0.5" y="827.9" width="84" height="12"/>
<rect x="0.5" y="805.9" width="84" height="12"/>
<rect x="0.5" y="770.9" width="84" height="12"/>
<rect x="0.5" y="745.9" width="84" height="12"/>
<rect x="0.5" y="709.9" width="84" height="12"/>
<rect x="0.5" y="686.9" width="84" height="12"/>
<rect x="0.5" y="664.9" width="84" height="12"/>
<rect x="0.5" y="629.9" width="84" height="12"/>
<rect x="0.5" y="604.9" width="84" height="12"/>
<rect x="0.5" y="568.9" width="84" height="12"/>
<rect x="0.5" y="545.9" width="84" height="12"/>
<rect x="0.5" y="523.9" width="84" height="12"/>
<rect x="0.5" y="488.9" width="84" height="12"/>
<rect x="0.5" y="463.9" width="84" height="12"/>
<rect x="0.5" y="427.9" width="84" height="12"/>
<rect x="0.5" y="404.9" width="84" height="12"/>
<rect x="0.5" y="382.9" width="84" height="12"/>
<rect x="0.5" y="347.9" width="84" height="12"/>
<rect x="0.5" y="322.9" width="84" height="12"/>
<rect x="0.5" y="286.9" width="84" height="12"/>
<rect x="0.5" y="263.9" width="84" height="12"/>
<rect x="0.5" y="241.9" width="84" height="12"/>
<rect x="0.5" y="206.9" width="84" height="12"/>
<rect x="0.5" y="181.9" width="84" height="12"/>
<rect x="0.5" y="145.9" width="84" height="12"/>
<rect x="0.5" y="122.9" width="84" height="12"/>
<rect x="0.5" y="100.9" width="84" height="12"/>
<g id="Layer_2_copy">
	<rect x="0.5" y="69.4" opacity="0.24" fill="#333333" width="39.3" height="1106.6"/>
</g>
<rect x="0.5" y="1177.2" fill="#CCCCCC" stroke="#000000" stroke-miterlimit="10" width="131.5" height="226"/>
<rect x="0.5" y="0.5" fill="#CCCCCC" stroke="#000000" stroke-miterlimit="10" width="131.5" height="88.7"/>
</svg>
